<svg viewBox="0 0 18 17" fill="none" xmlns="http://www.w3.org/2000/svg">
<path d="M7.5 2.25H17.25M7.5 2.25C7.5 2.64782 7.34196 3.02936 7.06066 3.31066C6.77936 3.59196 6.39782 3.75 6 3.75C5.60218 3.75 5.22064 3.59196 4.93934 3.31066C4.65804 3.02936 4.5 2.64782 4.5 2.25M7.5 2.25C7.5 1.85218 7.34196 1.47064 7.06066 1.18934C6.77936 0.908035 6.39782 0.75 6 0.75C5.60218 0.75 5.22064 0.908035 4.93934 1.18934C4.65804 1.47064 4.5 1.85218 4.5 2.25M4.5 2.25H0.75M7.5 14.25H17.25M7.5 14.25C7.5 14.6478 7.34196 15.0294 7.06066 15.3107C6.77936 15.592 6.39782 15.75 6 15.75C5.60218 15.75 5.22064 15.592 4.93934 15.3107C4.65804 15.0294 4.5 14.6478 4.5 14.25M7.5 14.25C7.5 13.8522 7.34196 13.4706 7.06066 13.1893C6.77936 12.908 6.39782 12.75 6 12.75C5.60218 12.75 5.22064 12.908 4.93934 13.1893C4.65804 13.4706 4.5 13.8522 4.5 14.25M4.5 14.25H0.75M13.5 8.25H17.25M13.5 8.25C13.5 8.64782 13.342 9.02936 13.0607 9.31066C12.7794 9.59196 12.3978 9.75 12 9.75C11.6022 9.75 11.2206 9.59196 10.9393 9.31066C10.658 9.02936 10.5 8.64782 10.5 8.25M13.5 8.25C13.5 7.85218 13.342 7.47064 13.0607 7.18934C12.7794 6.90804 12.3978 6.75 12 6.75C11.6022 6.75 11.2206 6.90804 10.9393 7.18934C10.658 7.47064 10.5 7.85218 10.5 8.25M10.5 8.25H0.75" stroke="currentColor" stroke-width="currentStroke" stroke-linecap="round" stroke-linejoin="round"/>
</svg>
