<svg width="20" height="21" viewBox="0 0 20 21" fill="none" xmlns="http://www.w3.org/2000/svg">
<path d="M4.75005 1.49402V3.74402M15.25 1.49402V3.74402M0.998047 17.244V5.99102C0.998047 5.39428 1.2351 4.82199 1.65706 4.40003C2.07901 3.97807 2.65131 3.74102 3.24805 3.74102H16.748C17.3448 3.74102 17.9171 3.97807 18.339 4.40003C18.761 4.82199 18.998 5.39428 18.998 5.99102V17.242M18.998 17.242C18.998 17.8388 18.761 18.4111 18.339 18.833C17.9171 19.255 17.3448 19.492 16.748 19.492H3.24805C2.65131 19.492 2.07901 19.255 1.65706 18.833C1.2351 18.4111 0.998047 17.8388 0.998047 17.242V9.74202C0.998047 9.14528 1.2351 8.57298 1.65706 8.15103C2.07901 7.72907 2.65131 7.49202 3.24805 7.49202H16.748C17.3448 7.49202 17.9171 7.72907 18.339 8.15103C18.761 8.57298 18.998 9.14528 18.998 9.74202V17.242ZM12.248 11.242H14.498M5.49805 13.492H9.99805M10 11.242H10.005V11.248H10V11.242ZM9.99905 15.742H10.005V15.748H9.99905V15.742ZM7.74905 15.743H7.75405V15.749H7.75005V15.743H7.74905ZM5.49905 15.743H5.50405V15.748H5.49805V15.743H5.49905ZM12.249 13.496H12.254V13.501H12.249V13.496ZM12.249 15.743H12.255V15.749H12.249V15.743ZM14.499 13.495H14.505V13.5H14.5L14.499 13.495Z" stroke="white" stroke-width="1.5" stroke-linecap="round" stroke-linejoin="round"/>
</svg>
