<svg width="56" height="56" viewBox="0 0 56 56" fill="none" xmlns="http://www.w3.org/2000/svg">
<rect width="56" height="56" rx="28" fill="#273642"/>
<g clip-path="url(#clip0_2038_4434)">
<path d="M43.6188 28.2994C43.6188 26.9884 43.5124 26.0317 43.2821 25.0396H28.3115V30.9569H37.0989C36.9218 32.4274 35.9651 34.642 33.8391 36.1301L33.8093 36.3282L38.5427 39.9952L38.8707 40.0279C41.8825 37.2463 43.6188 33.1537 43.6188 28.2994Z" fill="#4285F4"/>
<path d="M28.3117 43.8901C32.6168 43.8901 36.2309 42.4727 38.8708 40.0279L33.8392 36.1301C32.4928 37.0691 30.6856 37.7246 28.3117 37.7246C24.0951 37.7246 20.5164 34.9432 19.2406 31.0986L19.0536 31.1145L14.1317 34.9236L14.0674 35.1025C16.6894 40.3112 22.0753 43.8901 28.3117 43.8901Z" fill="#34A853"/>
<path d="M19.2402 31.0987C18.9036 30.1066 18.7088 29.0435 18.7088 27.9451C18.7088 26.8466 18.9036 25.7837 19.2225 24.7915L19.2136 24.5803L14.23 20.71L14.067 20.7875C12.9863 22.949 12.3662 25.3762 12.3662 27.9451C12.3662 30.5141 12.9863 32.9412 14.067 35.1026L19.2402 31.0987Z" fill="#FBBC05"/>
<path d="M28.3117 18.1654C31.3057 18.1654 33.3254 19.4587 34.477 20.5395L38.9771 16.1457C36.2133 13.5768 32.6168 12 28.3117 12C22.0753 12 16.6894 15.5787 14.0674 20.7874L19.2229 24.7915C20.5164 20.9469 24.0951 18.1654 28.3117 18.1654Z" fill="#EB4335"/>
</g>
<defs>
<clipPath id="clip0_2038_4434">
<rect width="32" height="32" fill="white" transform="translate(12 12)"/>
</clipPath>
</defs>
</svg>
