<svg  viewBox="0 0 18 22" fill="none" xmlns="http://www.w3.org/2000/svg">
<path d="M12 10C12 10.7956 11.6839 11.5587 11.1213 12.1213C10.5587 12.6839 9.79565 13 9 13C8.20435 13 7.44129 12.6839 6.87868 12.1213C6.31607 11.5587 6 10.7956 6 10C6 9.20435 6.31607 8.44129 6.87868 7.87868C7.44129 7.31607 8.20435 7 9 7C9.79565 7 10.5587 7.31607 11.1213 7.87868C11.6839 8.44129 12 9.20435 12 10Z" stroke="currentColor" stroke-width="2" stroke-linecap="round" stroke-linejoin="round"/>
<path d="M17 9C17 16.6181 9 21 9 21C9 21 1 16.6181 1 9C1 6.87827 1.84285 4.84344 3.34315 3.34315C4.84344 1.84285 6.87827 1 9 1C11.1217 1 13.1566 1.84285 14.6569 3.34315C16.1571 4.84344 17 6.87827 17 9Z" stroke="currentColor" stroke-width="2" stroke-linecap="round" stroke-linejoin="round"/>
</svg>
