<svg width="22" height="21" viewBox="0 0 22 21" fill="none" xmlns="http://www.w3.org/2000/svg">
<path d="M1.25 5.25C1.25 13.534 7.966 20.25 16.25 20.25H18.5C19.0967 20.25 19.669 20.0129 20.091 19.591C20.5129 19.169 20.75 18.5967 20.75 18V16.628C20.75 16.112 20.399 15.662 19.898 15.537L15.475 14.431C15.035 14.321 14.573 14.486 14.302 14.848L13.332 16.141C13.05 16.517 12.563 16.683 12.122 16.521C10.4849 15.9191 8.99815 14.9686 7.76478 13.7352C6.53141 12.5018 5.58087 11.0151 4.979 9.378C4.817 8.937 4.983 8.45 5.359 8.168L6.652 7.198C7.015 6.927 7.179 6.464 7.069 6.025L5.963 1.602C5.90214 1.35869 5.76172 1.1427 5.56405 0.988337C5.36638 0.833971 5.1228 0.750083 4.872 0.75H3.5C2.90326 0.75 2.33097 0.987053 1.90901 1.40901C1.48705 1.83097 1.25 2.40326 1.25 3V5.25Z" stroke="currentColor" stroke-width="1.5" stroke-linecap="round" stroke-linejoin="round"/>
</svg>
