<svg width="56" height="56" viewBox="0 0 56 56" fill="none" xmlns="http://www.w3.org/2000/svg">
<rect width="56" height="56" rx="28" fill="#273642"/>
<g clip-path="url(#clip0_2038_4466)">
<path d="M28.4027 40.5322C22.0621 40.5322 14.8577 32.8947 15.4338 26.5542C16.01 20.502 24.0797 14.8822 30.0596 15.7468C35.3194 16.4668 40.0031 23.0958 39.714 28.3556C39.4269 33.9025 33.9503 40.5322 28.4027 40.5322Z" fill="white"/>
<path d="M32.9432 43.773C32.5102 43.6292 31.8618 43.4853 31.5017 43.3407C31.0694 43.1253 30.5649 43.1253 28.9802 43.1969C27.4672 43.2685 26.6742 43.1969 25.5942 43.0523C19.8298 42.0445 15.2184 37.8655 13.5615 32.1017C13.2731 31.021 13.2015 30.4448 13.2015 27.8511C13.2015 25.0405 13.1292 24.825 12.7692 23.672C10.68 17.9799 14.9306 12 20.9828 12C22.2074 12 23.7204 12.3607 24.585 12.7923C25.1619 13.0807 25.5219 13.1523 27.755 13.1523C29.7726 13.1523 30.5649 13.2246 31.5733 13.513C36.1131 14.666 39.787 17.6198 41.7323 21.7266C42.9569 24.2481 43.3899 26.8426 43.1008 29.7957C42.9569 31.3817 42.9569 31.5256 43.3169 32.4618C44.4699 35.8485 43.3892 39.7385 40.5793 42.0445C39.714 42.7653 37.9855 43.5576 36.9048 43.846C35.8233 44.0621 34.0948 44.0621 33.0134 43.7737L32.9432 43.773ZM30.9972 38.2255C33.3755 37.7216 35.464 36.2801 36.257 34.5516C37.2655 32.4618 36.977 30.0119 35.6085 28.4988C34.4555 27.2019 32.7264 26.4819 28.6195 25.4734C25.8812 24.825 25.2328 24.5366 24.6566 23.8881C24.152 23.3113 24.0798 22.8797 24.5127 22.2312C24.945 21.5105 26.0258 21.0782 27.4665 21.0066C29.5564 20.8627 30.4926 21.3666 31.7172 23.312C32.6541 24.7534 33.5903 25.1134 34.8162 24.5366C36.4009 23.7443 36.257 21.1505 34.5271 19.6374C32.8702 18.269 31.0694 17.6921 28.0427 17.6921C24.8728 17.6921 22.7106 18.3406 21.2698 19.7813C20.1168 20.9343 19.9014 21.5828 19.9014 23.3836C19.9014 25.2566 20.1175 25.8328 21.3421 26.9142C22.639 28.1388 23.7197 28.5718 27.6097 29.508C30.3481 30.1564 31.0688 30.5164 31.7165 31.2371C32.0056 31.5978 32.1495 31.8856 32.1495 32.534C32.1495 33.2548 32.0772 33.3986 31.5011 33.9755C30.6365 34.8394 29.3396 35.1994 27.6827 35.1285C25.7373 34.9839 24.8728 34.4078 23.8643 32.3902C23.1436 31.0217 22.5674 30.5171 21.6305 30.5171C19.5407 30.5171 18.8206 32.2463 19.9014 34.4794C20.8382 36.4254 22.7113 37.7223 25.0889 38.2262C26.5297 38.5146 29.7003 38.5146 31.0694 38.2262L30.9972 38.2255Z" fill="#00AFF0"/>
</g>
<defs>
<clipPath id="clip0_2038_4466">
<rect width="32" height="32" fill="white" transform="translate(12 12)"/>
</clipPath>
</defs>
</svg>
