<svg width="20" height="21" viewBox="0 0 20 21" fill="none" xmlns="http://www.w3.org/2000/svg">
<path d="M15.982 17.2249C15.2833 16.2998 14.3793 15.5496 13.3412 15.0333C12.3031 14.5171 11.1594 14.2489 10 14.2499C8.84066 14.2489 7.6969 14.5171 6.65883 15.0333C5.62077 15.5496 4.71675 16.2998 4.01801 17.2249M15.982 17.2249C17.3455 16.0121 18.3071 14.4135 18.7412 12.641C19.1753 10.8686 19.0603 9.00604 18.4115 7.30043C17.7627 5.59482 16.6107 4.12673 15.1084 3.09085C13.6061 2.05497 11.8244 1.50024 9.99951 1.50024C8.17467 1.50024 6.39295 2.05497 4.89062 3.09085C3.38829 4.12673 2.23634 5.59482 1.58755 7.30043C0.938753 9.00604 0.823765 10.8686 1.25783 12.641C1.6919 14.4135 2.65451 16.0121 4.01801 17.2249M15.982 17.2249C14.336 18.6931 12.2056 19.5031 10 19.4999C7.79404 19.5033 5.66425 18.6934 4.01801 17.2249M13 8.24995C13 9.0456 12.6839 9.80866 12.1213 10.3713C11.5587 10.9339 10.7957 11.2499 10 11.2499C9.20436 11.2499 8.4413 10.9339 7.87869 10.3713C7.31608 9.80866 7.00001 9.0456 7.00001 8.24995C7.00001 7.4543 7.31608 6.69124 7.87869 6.12863C8.4413 5.56602 9.20436 5.24995 10 5.24995C10.7957 5.24995 11.5587 5.56602 12.1213 6.12863C12.6839 6.69124 13 7.4543 13 8.24995Z" stroke="currentColor" stroke-width="1.5" stroke-linecap="round" stroke-linejoin="round"/>
</svg>
