<svg width="56" height="56" viewBox="0 0 56 56" fill="none" xmlns="http://www.w3.org/2000/svg">
<rect width="56" height="56" rx="28" fill="#273642"/>
<g clip-path="url(#clip0_2038_4435)">
<path d="M39.2868 16.6503C36.2919 13.6532 32.3095 12.0018 28.0665 12C19.3232 12 12.208 19.113 12.2045 27.8559C12.2034 30.6506 12.9337 33.3786 14.3216 35.7833L12.0713 44L20.4799 41.7951C22.7967 43.0586 25.4052 43.7244 28.0597 43.7255H28.0664H28.0665C36.8084 43.7255 43.9247 36.6112 43.9284 27.8687C43.9299 23.6315 42.2814 19.6475 39.2868 16.6503ZM28.0665 41.0473H28.0614C25.6953 41.0461 23.375 40.4109 21.3512 39.2099L20.8695 38.9244L15.8797 40.2327L17.2119 35.3694L16.8981 34.8708C15.5783 32.7722 14.8815 30.3471 14.8825 27.8569C14.8854 20.5901 20.7993 14.6782 28.0715 14.6782C31.5931 14.6797 34.9029 16.0523 37.3922 18.5434C39.8814 21.0344 41.2512 24.3458 41.2502 27.8676C41.2471 35.1347 35.3329 41.0473 28.0665 41.0473Z" fill="#E0E0E0"/>
<path d="M12.7998 43.0884L14.9473 35.247C13.6224 32.9521 12.9257 30.3485 12.9265 27.682C12.93 19.3387 19.7203 12.5508 28.0635 12.5508C32.1128 12.5526 35.9134 14.1285 38.7709 16.9887C41.629 19.8489 43.2021 23.6506 43.2004 27.6938C43.197 36.0374 36.4062 42.8259 28.0641 42.8259C28.0635 42.8259 28.0645 42.8259 28.0641 42.8259H28.0574C25.5241 42.8251 23.035 42.1892 20.8242 40.9843L12.7998 43.0884Z" fill="url(#paint0_linear_2038_4435)"/>
<path fill-rule="evenodd" clip-rule="evenodd" d="M24.1471 21.1244C23.8537 20.4719 23.5447 20.4588 23.2655 20.4474C23.0372 20.4376 22.7757 20.4382 22.5147 20.4382C22.2535 20.4382 21.829 20.5364 21.47 20.9284C21.1109 21.3205 20.0986 22.2682 20.0986 24.1957C20.0986 26.1235 21.5027 27.9861 21.6984 28.2477C21.8943 28.509 24.4088 32.5909 28.391 34.1613C31.7005 35.4664 32.374 35.2068 33.0923 35.1415C33.8107 35.0762 35.4103 34.194 35.7368 33.2791C36.0633 32.3644 36.0633 31.5803 35.9654 31.4164C35.8674 31.2532 35.6062 31.1552 35.2143 30.9593C34.8225 30.7634 32.8964 29.8154 32.5372 29.6848C32.1781 29.5542 31.9168 29.4889 31.6556 29.8812C31.3944 30.273 30.644 31.1552 30.4154 31.4164C30.1869 31.6783 29.9583 31.7109 29.5665 31.515C29.1746 31.3185 27.9128 30.9052 26.4159 29.5705C25.2512 28.5322 24.4649 27.2497 24.2363 26.8575C24.0078 26.4657 24.2118 26.2534 24.4084 26.0581C24.5843 25.8826 24.8002 25.6008 24.9961 25.372C25.1916 25.1432 25.2569 24.98 25.3875 24.7187C25.5181 24.4571 25.4528 24.2283 25.3549 24.0324C25.2569 23.8365 24.4955 21.899 24.1471 21.1244Z" fill="white"/>
<path d="M39.157 16.5998C36.1964 13.6372 32.2598 12.0048 28.0655 12.0029C19.4226 12.0029 12.389 19.0343 12.3855 27.6768C12.3845 30.4394 13.1063 33.1361 14.4784 35.5132L12.2539 43.6356L20.566 41.456C22.8562 42.7049 25.4348 43.3631 28.0588 43.3641H28.0655H28.0655C36.707 43.3641 43.7417 36.3316 43.7453 27.6894C43.7468 23.5009 42.1172 19.5626 39.157 16.5998ZM28.0655 40.7168H28.0604C25.7215 40.7156 23.4278 40.0877 21.4273 38.9006L20.9511 38.6183L16.0185 39.9116L17.3355 35.1041L17.0253 34.6112C15.7206 32.5368 15.0318 30.1394 15.0329 27.6778C15.0357 20.4945 20.8818 14.6505 28.0705 14.6505C31.5516 14.6519 34.8234 16.0088 37.2842 18.4712C39.7448 20.9337 41.0989 24.2071 41.0978 27.6885C41.0948 34.872 35.2485 40.7168 28.0655 40.7168Z" fill="white"/>
</g>
<defs>
<linearGradient id="paint0_linear_2038_4435" x1="28.0001" y1="43.0884" x2="28.0001" y2="12.5508" gradientUnits="userSpaceOnUse">
<stop stop-color="#20B038"/>
<stop offset="1" stop-color="#60D66A"/>
</linearGradient>
<clipPath id="clip0_2038_4435">
<rect width="32" height="32" fill="white" transform="translate(12 12)"/>
</clipPath>
</defs>
</svg>
