<svg width="36" height="36" viewBox="0 0 36 36" fill="none" xmlns="http://www.w3.org/2000/svg">
<g clip-path="url(#clip0_129_126)">
<path d="M36 31.3333C36 34.0953 33.762 36.3333 31 36.3333H5C2.239 36.3333 0 34.0953 0 31.3333V5.33325C0 2.57125 2.239 0.333252 5 0.333252H31C33.762 0.333252 36 2.57125 36 5.33325V31.3333Z" fill="#F44336"/>
<path d="M30.499 19.8313C30.223 18.8483 29.41 18.0733 28.377 17.8103C26.506 17.3333 18 17.3333 18 17.3333C18 17.3333 9.494 17.3333 7.623 17.8113C6.591 18.0743 5.777 18.8483 5.501 19.8323C5 21.6143 5 25.3333 5 25.3333C5 25.3333 5 29.0523 5.501 30.8353C5.777 31.8183 6.59 32.5933 7.623 32.8563C9.494 33.3333 18 33.3333 18 33.3333C18 33.3333 26.505 33.3333 28.377 32.8553C29.409 32.5923 30.223 31.8183 30.499 30.8343C31 29.0523 31 25.3333 31 25.3333C31 25.3333 31 21.6143 30.499 19.8313Z" fill="white"/>
<path d="M10.333 31.3333H8.667V20.9883H7V19.3333H12V20.9883H10.333V31.3333ZM17 31.3333H15.5L15.333 30.2013C14.675 30.9123 13.892 31.3333 13.283 31.3333C12.75 31.3333 12.375 31.1023 12.191 30.6803C12.083 30.4163 12 30.0203 12 29.4253V21.8333H13.667V29.5903C13.709 29.8303 13.884 29.9203 14.1 29.9203C14.433 29.9203 14.967 29.5573 15.333 29.0773V21.8333H17V31.3333ZM29 26.9963V24.2953C29 23.5183 28.808 22.9573 28.467 22.5933C28.009 22.0973 27.35 21.8333 26.525 21.8333C25.683 21.8333 25.033 22.0973 24.558 22.5933C24.2 22.9563 24 23.5513 24 24.3283V28.9213C24 29.6893 24.225 30.2343 24.575 30.5903C25.05 31.0853 25.7 31.3333 26.567 31.3333C27.425 31.3333 28.1 31.0773 28.55 30.5483C28.75 30.3173 28.883 30.0523 28.942 29.7633C28.95 29.6313 29 29.2763 29 28.8553H27.333V29.5163C27.333 29.8963 26.958 30.2103 26.5 30.2103C26.042 30.2103 25.667 29.8963 25.667 29.5163V26.9963H29ZM25.667 23.7253C25.667 23.3373 26.042 23.0313 26.5 23.0313C26.958 23.0313 27.333 23.3373 27.333 23.7253V25.8483H25.666L25.667 23.7253ZM22.783 22.8253C22.575 22.1793 22.066 21.8243 21.433 21.8153C20.625 21.8073 20.291 22.2293 19.666 22.9573V19.3333H18V31.3333H19.5L19.667 30.2993C20.192 30.9443 20.875 31.3333 21.433 31.3333C22.066 31.3333 22.608 31.0023 22.816 30.3563C22.916 30.0083 22.991 29.6863 22.999 28.9573V24.6133C23 23.7943 22.892 23.1733 22.783 22.8253ZM21.333 28.7433C21.333 29.6123 21.133 29.9103 20.683 29.9103C20.425 29.9103 19.933 29.7363 19.666 29.4713V23.7853C19.933 23.5203 20.424 23.2643 20.683 23.2643C21.133 23.2643 21.333 23.5373 21.333 24.4063V28.7433Z" fill="#F44336"/>
<path d="M9 3.33325L10.835 3.33425L12.022 9.04625H12.137L13.265 3.33525L15.121 3.33425L13 11.2263V15.3333H11.177L11.174 11.4483L9 3.33325ZM15.139 8.41525C15.139 7.74325 15.358 7.20625 15.796 6.80925C16.233 6.41025 16.82 6.20925 17.56 6.20825C18.235 6.20825 18.785 6.41725 19.215 6.83825C19.644 7.25625 19.86 7.79825 19.86 8.46025L19.863 12.9453C19.863 13.6873 19.654 14.2713 19.233 14.6973C18.812 15.1213 18.234 15.3333 17.493 15.3333C16.779 15.3333 16.212 15.1123 15.781 14.6773C15.353 14.2423 15.141 13.6543 15.14 12.9173L15.137 8.41425L15.139 8.41525ZM16.815 13.0793C16.815 13.3153 16.872 13.5023 16.993 13.6323C17.108 13.7603 17.272 13.8253 17.488 13.8253C17.709 13.8253 17.882 13.7593 18.012 13.6243C18.141 13.4953 18.208 13.3103 18.208 13.0773L18.205 8.34625C18.205 8.15825 18.136 8.00425 18.004 7.88725C17.873 7.77125 17.699 7.71225 17.485 7.71225C17.286 7.71225 17.124 7.77225 16.999 7.88825C16.875 8.00525 16.813 8.15925 16.813 8.34725L16.815 13.0793ZM26 6.33325V15.3333H24.575L24.348 14.2333C24.043 14.5913 23.726 14.8633 23.395 15.0483C23.067 15.2343 22.747 15.3333 22.437 15.3333C22.053 15.3333 21.766 15.2013 21.571 14.9393C21.376 14.6803 21.28 14.2893 21.28 13.7653L21.276 6.33325H22.929L22.933 13.1583C22.933 13.3623 22.969 13.5133 23.039 13.6073C23.105 13.6973 23.222 13.7473 23.374 13.7473C23.498 13.7473 23.652 13.6853 23.834 13.5613C24.022 13.4393 24.192 13.2803 24.346 13.0903L24.344 6.33325H26Z" fill="white"/>
</g>
<defs>
<clipPath id="clip0_129_126">
<rect width="36" height="36" fill="white" transform="translate(0 0.333252)"/>
</clipPath>
</defs>
</svg>
