<svg width="768" height="80" viewBox="0 0 768 80" fill="none" xmlns="http://www.w3.org/2000/svg">
<path fill-rule="evenodd" clip-rule="evenodd" d="M768 30.25L749.44 27C731.52 23.75 695.04 17.25 658.56 25.375C621.44 33.5 584.96 56.25 548.48 64.375C512 72.5 475.52 66 439.04 56.25C402.56 46.5 365.44 33.5 328.96 25.375C292.48 17.25 256 14 219.52 23.75C183.04 33.5 146.56 56.25 109.44 67.625C72.96 79 36.48 79 18.56 79H1.71661e-05V0.999997H18.56C36.48 0.999997 72.96 0.999997 109.44 0.999997C146.56 0.999997 183.04 0.999997 219.52 0.999997C256 0.999997 292.48 0.999997 328.96 0.999997C365.44 0.999997 402.56 0.999997 439.04 0.999997C475.52 0.999997 512 0.999997 548.48 0.999997C584.96 0.999997 621.44 0.999997 658.56 0.999997C695.04 0.999997 731.52 0.999997 749.44 0.999997H768V30.25Z" fill="white" fill-opacity="0.01" stroke="#1E1E1E" stroke-opacity="0.1" stroke-width="2"/>
</svg>
