<svg width="84" height="85" viewBox="0 0 84 85" fill="none" xmlns="http://www.w3.org/2000/svg">
<path d="M29.4143 43.0858C28.6332 42.3047 27.3669 42.3047 26.5858 43.0858C25.8048 43.8668 25.8048 45.1332 26.5858 45.9142L29.4143 43.0858ZM36 52.5L34.5858 53.9142C35.3669 54.6953 36.6332 54.6953 37.4143 53.9142L36 52.5ZM57.4143 33.9142C58.1953 33.1332 58.1953 31.8668 57.4143 31.0858C56.6332 30.3047 55.3669 30.3047 54.5858 31.0858L57.4143 33.9142ZM20.9985 6.12007C20.0424 6.67315 19.7157 7.89661 20.2688 8.85273C20.8219 9.80885 22.0453 10.1356 23.0014 9.58249L20.9985 6.12007ZM9.08249 23.5014C9.63558 22.5453 9.30885 21.3219 8.35273 20.7688C7.39661 20.2157 6.17315 20.5424 5.62007 21.4985L9.08249 23.5014ZM28 44.5L26.5858 45.9142L34.5858 53.9142L36 52.5L37.4143 51.0858L29.4143 43.0858L28 44.5ZM36 52.5L37.4143 53.9142L57.4143 33.9142L56 32.5L54.5858 31.0858L34.5858 51.0858L36 52.5ZM22 7.85128L23.0014 9.58249C28.5887 6.35044 35.0754 4.5 42 4.5V2.5V0.5C34.3534 0.5 27.1782 2.54532 20.9985 6.12007L22 7.85128ZM42 2.5V4.5C62.9866 4.5 80 21.5132 80 42.5H82H84C84 19.304 65.1958 0.5 42 0.5V2.5ZM82 42.5H80C80 63.4866 62.9866 80.5 42 80.5V82.5V84.5C65.1958 84.5 84 65.6958 84 42.5H82ZM42 82.5V80.5C21.0132 80.5 4 63.4866 4 42.5H2H0C0 65.6958 18.804 84.5 42 84.5V82.5ZM2 42.5H4C4 35.5754 5.85044 29.0887 9.08249 23.5014L7.35128 22.5L5.62007 21.4985C2.04532 27.6782 0 34.8534 0 42.5H2Z" fill="#09A309"/>
</svg>
