<svg xmlns="http://www.w3.org/2000/svg" width="24" height="24" fill="none" viewBox="0 0 26 24"><path stroke="#808990" stroke-linecap="round" stroke-linejoin="round" stroke-width="2" d="M25 4.677v14.646c0 .833-.292 1.63-.811 2.22-.52.588-1.224.919-1.958.919H3.769c-.734 0-1.439-.331-1.958-.92-.52-.588-.811-1.386-.811-2.219V4.677m24 0c0-.832-.292-1.63-.811-2.22-.52-.588-1.224-.918-1.958-.918H3.769c-.734 0-1.439.33-1.958.919C1.291 3.046 1 3.845 1 4.677m24 0v.339a3.5 3.5 0 0 1-.352 1.53c-.23.468-.562.862-.965 1.143l-9.23 6.437c-.437.305-.94.466-1.453.466a2.53 2.53 0 0 1-1.452-.466L2.317 7.69a3 3 0 0 1-.966-1.142A3.5 3.5 0 0 1 1 5.018v-.341"></path></svg>