<svg width="16" height="14" viewBox="0 0 16 14" fill="none" xmlns="http://www.w3.org/2000/svg">
<path d="M1.77778 0C1.30628 0 0.854097 0.245833 0.520699 0.683417C0.187301 1.121 0 1.71449 0 2.33333V3.68783L7.50311 8.61233C7.65739 8.71358 7.82751 8.76628 8 8.76628C8.17249 8.76628 8.34261 8.71358 8.49689 8.61233L16 3.689V2.33333C16 1.71449 15.8127 1.121 15.4793 0.683417C15.1459 0.245833 14.6937 0 14.2222 0H1.77778Z" fill="white"/>
<path d="M16 5.6455L9.09333 10.178C8.75387 10.4008 8.37954 10.5168 8 10.5168C7.62046 10.5168 7.24613 10.4008 6.90667 10.178L0 5.6455V11.6667C0 12.2855 0.187301 12.879 0.520699 13.3166C0.854097 13.7542 1.30628 14 1.77778 14H14.2222C14.6937 14 15.1459 13.7542 15.4793 13.3166C15.8127 12.879 16 12.2855 16 11.6667V5.6455Z" fill="white"/>
</svg>
