<svg width="25" height="22" viewBox="0 0 25 22" fill="none" xmlns="http://www.w3.org/2000/svg">
<path d="M23.3676 4.175V17.825C23.3676 18.6008 23.0957 19.3447 22.6117 19.8933C22.1277 20.4418 21.4713 20.75 20.7868 20.75H3.58088C2.89639 20.75 2.23993 20.4418 1.75592 19.8933C1.27191 19.3447 1 18.6008 1 17.825V4.175M23.3676 4.175C23.3676 3.39924 23.0957 2.65526 22.6117 2.10671C22.1277 1.55817 21.4713 1.25 20.7868 1.25H3.58088C2.89639 1.25 2.23993 1.55817 1.75592 2.10671C1.27191 2.65526 1 3.39924 1 4.175M23.3676 4.175V4.4909C23.3677 4.99029 23.2549 5.48138 23.0401 5.91738C22.8252 6.35339 22.5155 6.7198 22.1403 6.9817L13.5374 12.9812C13.1304 13.2653 12.6618 13.4157 12.1838 13.4157C11.7058 13.4157 11.2373 13.2653 10.8303 12.9812L2.22735 6.983C1.85217 6.7211 1.54241 6.35469 1.32756 5.91868C1.11272 5.48268 0.999951 4.99159 1 4.4922V4.175" stroke="#808990" stroke-width="2" stroke-linecap="round" stroke-linejoin="round"/>
</svg>
