<svg width="32" height="32" viewBox="0 0 32 32" fill="none" xmlns="http://www.w3.org/2000/svg">
<g clip-path="url(#clip0_826_419)">
<path d="M0 16C0 7.16347 7.16347 0 16 0C24.8365 0 32 7.16347 32 16C32 24.8365 24.8365 32 16 32C7.16347 32 0 24.8365 0 16Z" fill="#273642"/>
<path d="M15.9999 11.7475C17.3018 11.7475 18.18 12.3099 18.6808 12.7799L20.6376 10.8693C19.4358 9.75225 17.8719 9.06665 15.9999 9.06665C13.2882 9.06665 10.9463 10.6228 9.80615 12.8876L12.0479 14.6287C12.6103 12.957 14.1664 11.7475 15.9999 11.7475Z" fill="#EA4335"/>
<path d="M22.656 16.154C22.656 15.584 22.6098 15.168 22.5096 14.7366H16V17.3096H19.8211C19.744 17.949 19.328 18.912 18.4035 19.559L20.5914 21.2539C21.9011 20.0444 22.656 18.2648 22.656 16.154Z" fill="#4285F4"/>
<path d="M12.056 17.3713C11.9096 16.9399 11.8248 16.4776 11.8248 16C11.8248 15.5224 11.9096 15.0602 12.0482 14.6288L9.80643 12.8877C9.33656 13.8276 9.06689 14.883 9.06689 16C9.06689 17.117 9.33656 18.1725 9.80643 19.1123L12.056 17.3713Z" fill="#FBBC05"/>
<path d="M16 22.9334C17.872 22.9334 19.4436 22.3171 20.5914 21.254L18.4036 19.5592C17.8181 19.9675 17.0323 20.2525 16 20.2525C14.1666 20.2525 12.6104 19.043 12.0558 17.3713L9.81396 19.1123C10.9541 21.3773 13.2883 22.9334 16 22.9334Z" fill="#34A853"/>
</g>
<defs>
<clipPath id="clip0_826_419">
<rect width="32" height="32" fill="white"/>
</clipPath>
</defs>
</svg>
