<svg width="36" height="36" viewBox="0 0 36 36" fill="none" xmlns="http://www.w3.org/2000/svg">
<g clip-path="url(#clip0_168_127)">
<path d="M9.12882 35.8726C7.73637 35.857 6.35701 35.6017 5.05129 35.1176C4.0978 34.7652 3.23513 34.2041 2.52635 33.4754C1.79568 32.768 1.23377 31.9052 0.882353 30.9508C0.398736 29.6452 0.143711 28.2659 0.128471 26.8736C0.0215294 24.5591 0 23.8648 0 18C0 12.1352 0.0236471 11.4434 0.127412 9.12706C0.144502 7.73533 0.399841 6.35681 0.882353 5.05129C1.23548 4.09765 1.7966 3.23463 2.52494 2.52494C3.23284 1.79493 4.09592 1.23354 5.05023 0.882353C6.35595 0.398335 7.73531 0.142951 9.12776 0.127412C11.4431 0.0215294 12.1384 0 18 0C23.8616 0 24.5566 0.0236471 26.8729 0.127412C28.265 0.144381 29.6439 0.399722 30.9498 0.882353C31.9037 1.234 32.7665 1.7952 33.4747 2.52459C34.2043 3.23303 34.7657 4.09609 35.1176 5.05023C35.6018 6.35593 35.8573 7.73529 35.8729 9.12776C35.9788 11.4441 36.0004 12.1376 36.0004 18.0007C36.0004 23.8638 35.9788 24.5573 35.8729 26.8736C35.8561 28.2659 35.6007 29.6449 35.1176 30.9508C34.7523 31.8978 34.1927 32.7578 33.4748 33.4755C32.757 34.1931 31.8969 34.7525 30.9498 35.1176C29.6441 35.6018 28.2647 35.8573 26.8722 35.8729C24.558 35.9788 23.8624 36.0004 17.9993 36.0004C12.1362 36.0004 11.4427 35.9799 9.12847 35.8729" fill="url(#paint0_radial_168_127)"/>
<path d="M9.12882 35.8726C7.73637 35.857 6.35701 35.6017 5.05129 35.1176C4.0978 34.7652 3.23513 34.2041 2.52635 33.4754C1.79568 32.768 1.23377 31.9052 0.882353 30.9508C0.398736 29.6452 0.143711 28.2659 0.128471 26.8736C0.0215294 24.5591 0 23.8648 0 18C0 12.1352 0.0236471 11.4434 0.127412 9.12706C0.144502 7.73533 0.399841 6.35681 0.882353 5.05129C1.23548 4.09765 1.7966 3.23463 2.52494 2.52494C3.23284 1.79493 4.09592 1.23354 5.05023 0.882353C6.35595 0.398335 7.73531 0.142951 9.12776 0.127412C11.4431 0.0215294 12.1384 0 18 0C23.8616 0 24.5566 0.0236471 26.8729 0.127412C28.265 0.144381 29.6439 0.399722 30.9498 0.882353C31.9037 1.234 32.7665 1.7952 33.4747 2.52459C34.2043 3.23303 34.7657 4.09609 35.1176 5.05023C35.6018 6.35593 35.8573 7.73529 35.8729 9.12776C35.9788 11.4441 36.0004 12.1376 36.0004 18.0007C36.0004 23.8638 35.9788 24.5573 35.8729 26.8736C35.8561 28.2659 35.6007 29.6449 35.1176 30.9508C34.7523 31.8978 34.1927 32.7578 33.4748 33.4755C32.757 34.1931 31.8969 34.7525 30.9498 35.1176C29.6441 35.6018 28.2647 35.8573 26.8722 35.8729C24.558 35.9788 23.8624 36.0004 17.9993 36.0004C12.1362 36.0004 11.4427 35.9799 9.12847 35.8729" fill="url(#paint1_radial_168_127)"/>
<path d="M13.9167 18.3733C13.9168 17.4916 14.1783 16.6297 14.6682 15.8966C15.1582 15.1635 15.8545 14.5922 16.6691 14.2548C17.4837 13.9175 18.3801 13.8293 19.2449 14.0014C20.1097 14.1735 20.904 14.5982 21.5274 15.2217C22.1508 15.8453 22.5752 16.6397 22.7472 17.5045C22.9191 18.3693 22.8307 19.2657 22.4931 20.0802C22.1556 20.8948 21.5841 21.591 20.8509 22.0807C20.1177 22.5705 19.2557 22.8318 18.374 22.8317C17.1917 22.8315 16.0579 22.3616 15.222 21.5255C14.3862 20.6895 13.9166 19.5556 13.9167 18.3733ZM11.5065 18.3733C11.5065 19.7316 11.9092 21.0593 12.6639 22.1887C13.4185 23.3181 14.491 24.1983 15.7459 24.7181C17.0008 25.2379 18.3816 25.3739 19.7138 25.1089C21.046 24.8439 22.2696 24.1898 23.2301 23.2294C24.1905 22.2689 24.8446 21.0453 25.1096 19.7131C25.3746 18.3809 25.2386 17.0001 24.7188 15.7452C24.199 14.4903 23.3188 13.4178 22.1894 12.6631C21.06 11.9085 19.7323 11.5058 18.374 11.5058C17.4721 11.5057 16.5791 11.6833 15.7459 12.0284C14.9126 12.3735 14.1555 12.8794 13.5178 13.5171C12.8801 14.1548 12.3742 14.9119 12.0291 15.7451C11.684 16.5784 11.5064 17.4714 11.5065 18.3733ZM23.9085 11.2336C23.9083 11.551 24.0023 11.8614 24.1785 12.1254C24.3548 12.3893 24.6053 12.5951 24.8985 12.7167C25.1917 12.8383 25.5144 12.8703 25.8257 12.8085C26.137 12.7467 26.423 12.594 26.6476 12.3696C26.8721 12.1453 27.0251 11.8594 27.0871 11.5481C27.1492 11.2369 27.1176 10.9142 26.9962 10.6209C26.8749 10.3276 26.6693 10.0768 26.4055 9.90039C26.1416 9.72393 25.8314 9.62967 25.514 9.62953C25.0885 9.62972 24.6806 9.79876 24.3797 10.0995C24.0788 10.4003 23.9095 10.8082 23.9092 11.2336M12.9715 29.2598C12.1235 29.2504 11.2833 29.0952 10.4879 28.8009C9.91102 28.5786 9.38712 28.2379 8.94988 27.8009C8.51264 27.3638 8.17176 26.8401 7.94917 26.2633C7.65474 25.4679 7.49953 24.6277 7.49035 23.7796C7.42541 22.37 7.41271 21.9465 7.41271 18.3751C7.41271 14.8036 7.42682 14.3812 7.49035 12.9701C7.50064 12.1221 7.65581 11.2822 7.94917 10.4865C8.1715 9.90943 8.51228 9.38539 8.94954 8.94813C9.3868 8.51087 9.91084 8.17009 10.4879 7.94776C11.2833 7.65334 12.1234 7.49813 12.9715 7.48894C14.3812 7.424 14.8047 7.41129 18.3747 7.41129C21.9447 7.41129 22.3686 7.42506 23.7796 7.4893C24.6276 7.49959 25.4676 7.65476 26.2633 7.94812C26.8403 8.17046 27.3643 8.51125 27.8016 8.94851C28.2389 9.38577 28.5797 9.9098 28.802 10.4868C29.0964 11.2822 29.2516 12.1224 29.2608 12.9705C29.3258 14.3822 29.3385 14.8036 29.3385 18.3754C29.3385 21.9472 29.3254 22.3693 29.2608 23.7804C29.2509 24.6284 29.0958 25.4684 28.802 26.264C28.5794 26.8408 28.2385 27.3645 27.8013 27.8016C27.3641 28.2386 26.8401 28.5793 26.2633 28.8016C25.4679 29.0961 24.6277 29.2513 23.7796 29.2605C22.37 29.3254 21.9465 29.3381 18.3747 29.3381C14.8029 29.3381 14.3808 29.3251 12.9715 29.2605M12.8607 5.08082C11.751 5.10264 10.653 5.31268 9.61364 5.70199C8.72512 6.04554 7.91818 6.57096 7.24457 7.24457C6.57096 7.91818 6.04554 8.72512 5.70199 9.61364C5.31273 10.6531 5.1027 11.751 5.08082 12.8607C5.01482 14.2866 5 14.7426 5 18.3747C5 22.0068 5.01518 22.4625 5.08082 23.8887C5.10269 24.9984 5.31272 26.0963 5.70199 27.1358C6.04556 28.0243 6.57098 28.8312 7.24459 29.5048C7.9182 30.1784 8.72513 30.7038 9.61364 31.0474C10.6531 31.4365 11.751 31.6466 12.8607 31.6686C14.2873 31.7335 14.7426 31.7494 18.3747 31.7494C22.0068 31.7494 22.4625 31.7342 23.8887 31.6686C24.9984 31.6467 26.0963 31.4366 27.1358 31.0474C28.0243 30.7038 28.8312 30.1784 29.5048 29.5048C30.1784 28.8312 30.7038 28.0243 31.0474 27.1358C31.4372 26.0965 31.6473 24.9985 31.6686 23.8887C31.7335 22.4618 31.7483 22.0068 31.7483 18.3747C31.7483 14.7426 31.7332 14.2869 31.6686 12.8607C31.6468 11.751 31.4367 10.653 31.0474 9.61364C30.7039 8.72529 30.1786 7.91847 29.5052 7.24488C28.8318 6.57129 28.0251 6.04577 27.1368 5.70199C26.0975 5.31243 24.9995 5.10238 23.8898 5.08082C22.4635 5.01553 22.0079 5 18.3765 5C14.7451 5 14.2883 5.01518 12.8614 5.08082" fill="white"/>
</g>
<defs>
<radialGradient id="paint0_radial_168_127" cx="0" cy="0" r="1" gradientUnits="userSpaceOnUse" gradientTransform="translate(2.32976 35.2115) scale(45.7066)">
<stop offset="0.09" stop-color="#FA8F21"/>
<stop offset="0.78" stop-color="#D82D7E"/>
</radialGradient>
<radialGradient id="paint1_radial_168_127" cx="0" cy="0" r="1" gradientUnits="userSpaceOnUse" gradientTransform="translate(24.936 34.0553) scale(40.2222)">
<stop offset="0.64" stop-color="#8C3AAA" stop-opacity="0"/>
<stop offset="1" stop-color="#8C3AAA"/>
</radialGradient>
<clipPath id="clip0_168_127">
<rect width="36" height="36" fill="white"/>
</clipPath>
</defs>
</svg>
