<svg width="36" height="36" viewBox="0 0 36 36" fill="none" xmlns="http://www.w3.org/2000/svg">
<g clip-path="url(#clip0_129_123)">
<path d="M36 31.3333C36 34.0953 33.762 36.3333 31 36.3333H5C2.239 36.3333 0 34.0953 0 31.3333V5.33325C0 2.57125 2.239 0.333252 5 0.333252H31C33.762 0.333252 36 2.57125 36 5.33325V31.3333Z" fill="#0288D1"/>
<path d="M6 13.3333H11V30.3333H6V13.3333ZM8.485 11.3333H8.457C6.965 11.3333 6 10.2213 6 8.83225C6 7.41325 6.995 6.33325 8.514 6.33325C10.035 6.33325 10.972 7.41325 11 8.83225C11 10.2203 10.035 11.3333 8.485 11.3333ZM30 30.3333H25V21.2343C25 19.0363 23.775 17.5363 21.808 17.5363C20.307 17.5363 19.495 18.5483 19.101 19.5263C18.957 19.8763 19 20.8443 19 21.3333V30.3333H14V13.3333H19V15.9493C19.721 14.8333 20.85 13.3333 23.738 13.3333C27.316 13.3333 29.999 15.5833 29.999 20.6073L30 30.3333Z" fill="white"/>
</g>
<defs>
<clipPath id="clip0_129_123">
<rect width="36" height="36" fill="white" transform="translate(0 0.333252)"/>
</clipPath>
</defs>
</svg>
