<svg width="12" height="16" viewBox="0 0 12 16" fill="none" xmlns="http://www.w3.org/2000/svg">
<path d="M7.26872 0.266112C6.73649 0.0997922 6.171 0 5.58888 0C3.87578 0 2.34564 0.781705 1.31445 1.99584L3.95894 4.2079L7.26872 0.266112Z" fill="#808990"/>
<path d="M1.31393 2C0.49896 2.96466 0 4.22869 0 5.59252C0 6.64033 0.216216 7.48857 0.548857 8.25364L3.94179 4.22869L1.31393 2Z" fill="#808990"/>
<path d="M5.58795 3.44286C6.76882 3.44286 7.71685 4.39089 7.71685 5.57176C7.71685 6.10398 7.53389 6.58631 7.21788 6.95222C7.21788 6.95222 8.89772 4.93974 10.5443 2.9938C9.86238 1.6965 8.69813 0.698576 7.28441 0.249512L3.95801 4.20793C4.34054 3.74224 4.92267 3.44286 5.58795 3.44286Z" fill="#808990"/>
<path d="M5.58928 7.71721C4.4084 7.71721 3.46038 6.76919 3.46038 5.58831C3.46038 5.07272 3.64333 4.59039 3.95934 4.22449L0.566406 8.24944C1.13189 9.5301 2.09655 10.5613 3.09447 11.8586L7.21922 6.95214C6.83668 7.41784 6.23793 7.71721 5.58928 7.71721Z" fill="#808990"/>
<path d="M7.13533 13.2058C8.99812 10.2952 11.1769 8.96464 11.1769 5.58834C11.1769 4.65695 10.9441 3.79208 10.5449 3.01038L3.09375 11.8586C3.40976 12.2744 3.72577 12.7068 4.04177 13.2058C5.17275 14.9522 4.85674 16 5.58855 16C6.32036 16 6.00435 14.9522 7.13533 13.2058Z" fill="#808990"/>
</svg>
