<svg width="16" height="16" viewBox="0 0 16 16" fill="none" xmlns="http://www.w3.org/2000/svg">
<path fill-rule="evenodd" clip-rule="evenodd" d="M8 0C6.63603 0 5.32792 0.421427 4.36345 1.17157C3.39898 1.92172 2.85714 2.93913 2.85714 4V7.11111H2.28571C1.67951 7.11111 1.09812 7.29841 0.66947 7.63181C0.240816 7.96521 0 8.41739 0 8.88889V14.2222C0 14.6937 0.240816 15.1459 0.66947 15.4793C1.09812 15.8127 1.67951 16 2.28571 16H13.7143C14.3205 16 14.9019 15.8127 15.3305 15.4793C15.7592 15.1459 16 14.6937 16 14.2222V8.88889C16 8.41739 15.7592 7.96521 15.3305 7.63181C14.9019 7.29841 14.3205 7.11111 13.7143 7.11111H13.1429V4C13.1429 2.93913 12.601 1.92172 11.6365 1.17157C10.6721 0.421427 9.36397 0 8 0ZM11.4286 7.11111V4C11.4286 3.29276 11.0673 2.61448 10.4244 2.11438C9.78139 1.61428 8.90931 1.33333 8 1.33333C7.09069 1.33333 6.21862 1.61428 5.57563 2.11438C4.93265 2.61448 4.57143 3.29276 4.57143 4V7.11111H11.4286Z" fill="white"/>
</svg>
