<svg width="117" height="28" viewBox="0 0 117 28" fill="none" xmlns="http://www.w3.org/2000/svg">
<mask id="mask0_674_627" style="mask-type:luminance" maskUnits="userSpaceOnUse" x="0" y="0" width="28" height="28">
<path d="M23.2632 0H4.10526C1.83799 0 0 1.83454 0 4.09756V23.2195C0 25.4825 1.83799 27.3171 4.10526 27.3171H23.2632C25.5304 27.3171 27.3684 25.4825 27.3684 23.2195V4.09756C27.3684 1.83454 25.5304 0 23.2632 0Z" fill="white"/>
</mask>
<g mask="url(#mask0_674_627)">
<path fill-rule="evenodd" clip-rule="evenodd" d="M0 0H27.362V17.2229L13.46 3.40485L0 16.7338V0ZM27.362 22.1807V27.035L13.46 13.2169L0 26.5458V21.6142L13.4345 8.15845L27.362 22.1807ZM22.7015 27.3005H4.11924L13.4345 17.9705L22.7015 27.3005Z" fill="white"/>
</g>
<path d="M36.6465 13.6585V2.10339H39.6844V7.05324H39.7172L44.1509 2.10339H47.6979L42.0819 8.18417V6.98768L48.0099 13.6585H44.348L39.7172 8.44641H39.6844V13.6585H36.6465ZM46.4783 7.87275C46.4783 6.6708 46.7137 5.62729 47.1844 4.74222C47.6552 3.84622 48.3284 3.15236 49.2042 2.66066C50.08 2.16895 51.1145 1.9231 52.3078 1.9231C53.512 1.9231 54.552 2.16895 55.4278 2.66066C56.3036 3.15236 56.9768 3.84622 57.4476 4.74222C57.9293 5.62729 58.1701 6.6708 58.1701 7.87275C58.1701 9.06378 57.9293 10.1073 57.4476 11.0033C56.9768 11.8993 56.3036 12.5986 55.4278 13.1012C54.552 13.5929 53.512 13.8388 52.3078 13.8388C51.1145 13.8388 50.08 13.5929 49.2042 13.1012C48.3394 12.5986 47.6661 11.8993 47.1844 11.0033C46.7137 10.1073 46.4783 9.06378 46.4783 7.87275ZM49.6476 7.87275C49.6476 8.95451 49.8665 9.80134 50.3044 10.4132C50.7423 11.0142 51.4101 11.3147 52.3078 11.3147C53.2055 11.3147 53.8787 11.0142 54.3276 10.4132C54.7764 9.80134 55.0008 8.95451 55.0008 7.87275C55.0008 6.791 54.7764 5.94963 54.3276 5.34866C53.8787 4.74768 53.2055 4.44719 52.3078 4.44719C51.4101 4.44719 50.7423 4.74768 50.3044 5.34866C49.8665 5.93871 49.6476 6.78007 49.6476 7.87275ZM59.0029 13.6585V2.10339H61.2361L67.0984 9.36427H66.6222V2.10339H69.4304V13.6585H67.197L61.3675 6.39763H61.8437V13.6585H59.0029ZM70.5737 13.6585V2.10339H75.2373C76.6057 2.10339 77.7607 2.33832 78.7022 2.80817C79.6436 3.2671 80.3552 3.92817 80.8369 4.79139C81.3295 5.64368 81.5759 6.6708 81.5759 7.87275C81.5759 9.06378 81.3295 10.0909 80.8369 10.9541C80.3552 11.8173 79.6436 12.4839 78.7022 12.9537C77.7607 13.4236 76.6057 13.6585 75.2373 13.6585H70.5737ZM73.6116 11.2H75.0403C76.2335 11.2 77.1148 10.9268 77.6841 10.3805C78.2643 9.83412 78.5544 8.99822 78.5544 7.87275C78.5544 6.73636 78.2643 5.90046 77.6841 5.36505C77.1148 4.81871 76.2335 4.54553 75.0403 4.54553H73.6116V11.2ZM82.1054 7.87275C82.1054 6.6708 82.3408 5.62729 82.8115 4.74222C83.2823 3.84622 83.9555 3.15236 84.8313 2.66066C85.7071 2.16895 86.7416 1.9231 87.9349 1.9231C89.1391 1.9231 90.1791 2.16895 91.0549 2.66066C91.9307 3.15236 92.604 3.84622 93.0747 4.74222C93.5564 5.62729 93.7972 6.6708 93.7972 7.87275C93.7972 9.06378 93.5564 10.1073 93.0747 11.0033C92.604 11.8993 91.9307 12.5986 91.0549 13.1012C90.1791 13.5929 89.1391 13.8388 87.9349 13.8388C86.7416 13.8388 85.7071 13.5929 84.8313 13.1012C83.9665 12.5986 83.2932 11.8993 82.8115 11.0033C82.3408 10.1073 82.1054 9.06378 82.1054 7.87275ZM85.2747 7.87275C85.2747 8.95451 85.4936 9.80134 85.9315 10.4132C86.3694 11.0142 87.0372 11.3147 87.9349 11.3147C88.8326 11.3147 89.5059 11.0142 89.9547 10.4132C90.4035 9.80134 90.628 8.95451 90.628 7.87275C90.628 6.791 90.4035 5.94963 89.9547 5.34866C89.5059 4.74768 88.8326 4.44719 87.9349 4.44719C87.0372 4.44719 86.3694 4.74768 85.9315 5.34866C85.4936 5.93871 85.2747 6.78007 85.2747 7.87275ZM94.6299 13.6585V2.10339H100.098C101.434 2.10339 102.463 2.42027 103.185 3.05402C103.919 3.68778 104.285 4.56739 104.285 5.69285C104.285 6.4468 104.121 7.09149 103.793 7.6269C103.464 8.15139 102.988 8.56114 102.364 8.85617C101.74 9.14027 100.996 9.28232 100.131 9.28232L100.279 8.87256H101.1C101.581 8.87256 102.008 9.00368 102.381 9.26592C102.753 9.52817 103.059 9.89422 103.3 10.3641L105.057 13.6585H101.74L99.8518 9.97071C99.7314 9.73032 99.5508 9.56641 99.3099 9.479C99.08 9.39158 98.8173 9.34788 98.5217 9.34788H97.6678V13.6585H94.6299ZM97.6678 7.20075H99.5727C100.164 7.20075 100.613 7.08602 100.919 6.85656C101.226 6.61617 101.379 6.26105 101.379 5.79119C101.379 5.33227 101.226 4.98807 100.919 4.75861C100.613 4.52914 100.164 4.41441 99.5727 4.41441H97.6678V7.20075ZM110.491 13.8388C108.762 13.8388 107.464 13.4127 106.599 12.5604C105.735 11.7081 105.302 10.4351 105.302 8.74144V2.10339H108.324V8.75783C108.324 9.59919 108.499 10.2384 108.849 10.6755C109.199 11.1016 109.747 11.3147 110.491 11.3147C111.236 11.3147 111.783 11.1016 112.133 10.6755C112.484 10.2384 112.659 9.59919 112.659 8.75783V2.10339H115.647V8.74144C115.647 10.4351 115.221 11.7081 114.367 12.5604C113.513 13.4127 112.221 13.8388 110.491 13.8388Z" fill="white"/>
<path d="M36.4766 25.2682V17.9258H37.3322L40.2329 24.4454H39.9199L42.8206 17.9258H43.6658V25.2682H42.7788V19.2173H43.1023L40.379 25.2682H39.7634L37.04 19.2173H37.3635V25.2682H36.4766ZM46.6012 25.362C45.9681 25.362 45.4917 25.1918 45.1717 24.8516C44.8587 24.5114 44.7021 23.9872 44.7021 23.279V20.0296H45.6517V23.2581C45.6517 23.7164 45.7456 24.0531 45.9334 24.2684C46.1212 24.4837 46.4134 24.5912 46.8099 24.5912C47.2411 24.5912 47.589 24.4489 47.8533 24.1642C48.1246 23.8726 48.2602 23.4873 48.2602 23.0082V20.0296H49.2097V25.2682H48.2915V24.1121H48.4272C48.2811 24.5079 48.0481 24.8169 47.7281 25.0391C47.4081 25.2543 47.0324 25.362 46.6012 25.362ZM52.1838 25.362C51.7247 25.362 51.3213 25.2543 50.9734 25.0391C50.6256 24.8238 50.3543 24.5114 50.1595 24.1018C49.9648 23.6921 49.8674 23.2061 49.8674 22.6437C49.8674 22.0813 49.9648 21.5988 50.1595 21.196C50.3543 20.7864 50.6256 20.474 50.9734 20.2587C51.3213 20.0435 51.7247 19.9359 52.1838 19.9359C52.6429 19.9359 53.0429 20.0504 53.3837 20.2796C53.7315 20.5087 53.9646 20.8246 54.0828 21.2273H53.9576V17.603H54.9071V25.2682H53.9681V24.0497H54.0828C53.9716 24.4593 53.742 24.7822 53.3941 25.0182C53.0533 25.2474 52.6499 25.362 52.1838 25.362ZM52.4029 24.612C52.8759 24.612 53.255 24.4454 53.5402 24.1121C53.8324 23.7789 53.9785 23.2894 53.9785 22.6437C53.9785 21.998 53.8324 21.512 53.5402 21.1857C53.255 20.8594 52.8759 20.6961 52.4029 20.6961C51.9299 20.6961 51.5473 20.8594 51.2552 21.1857C50.9699 21.512 50.8273 21.998 50.8273 22.6437C50.8273 23.2894 50.9699 23.7789 51.2552 24.1121C51.5473 24.4454 51.9299 24.612 52.4029 24.612ZM58.2614 25.362C57.4267 25.362 56.7658 25.1224 56.2789 24.6433C55.7989 24.1642 55.5589 23.5047 55.5589 22.6645C55.5589 22.1091 55.6633 21.63 55.8719 21.2273C56.0876 20.8177 56.3833 20.5018 56.7589 20.2796C57.1345 20.0504 57.5728 19.9359 58.0736 19.9359C58.5536 19.9359 58.9605 20.0401 59.2944 20.2483C59.6283 20.4497 59.8822 20.7378 60.0561 21.1127C60.23 21.4877 60.3169 21.932 60.3169 22.4458V22.7582H56.2998V22.1958H59.67L59.4927 22.3313C59.4927 21.7897 59.3709 21.3696 59.1274 21.0711C58.891 20.7726 58.5396 20.6233 58.0736 20.6233C57.5658 20.6233 57.1728 20.8003 56.8945 21.1544C56.6163 21.5016 56.4771 21.9772 56.4771 22.5812V22.6749C56.4771 23.3137 56.6337 23.7963 56.9467 24.1226C57.2666 24.4489 57.7084 24.612 58.2718 24.612C58.5848 24.612 58.877 24.567 59.1483 24.4767C59.4196 24.3864 59.6805 24.2371 59.9309 24.0288L60.2439 24.685C60.0074 24.9002 59.7117 25.0669 59.357 25.1849C59.0092 25.3029 58.644 25.362 58.2614 25.362ZM63.0569 27.5178V21.269C63.0569 21.0677 63.0499 20.8628 63.036 20.6545C63.0221 20.4462 63.0012 20.2379 62.9734 20.0296H63.8916L64.0064 21.2377H63.8916C63.996 20.835 64.2186 20.5191 64.5594 20.29C64.9002 20.0539 65.3072 19.9359 65.7802 19.9359C66.2463 19.9359 66.6532 20.0435 67.001 20.2587C67.3488 20.474 67.6166 20.7864 67.8044 21.196C67.9992 21.5988 68.0966 22.0813 68.0966 22.6437C68.0966 23.2061 67.9992 23.6921 67.8044 24.1018C67.6166 24.5114 67.3488 24.8238 67.001 25.0391C66.6532 25.2543 66.2463 25.362 65.7802 25.362C65.3142 25.362 64.9107 25.2474 64.5698 25.0182C64.2359 24.7822 64.0099 24.4662 63.8916 24.0705H64.0064V27.5178H63.0569ZM65.5611 24.612C66.0411 24.612 66.4236 24.4454 66.7089 24.1121C66.9941 23.7789 67.1367 23.2894 67.1367 22.6437C67.1367 21.998 66.9941 21.512 66.7089 21.1857C66.4236 20.8594 66.0411 20.6961 65.5611 20.6961C65.0811 20.6961 64.6985 20.8594 64.4134 21.1857C64.1351 21.512 63.996 21.998 63.996 22.6437C63.996 23.2894 64.1351 23.7789 64.4134 24.1121C64.6985 24.4454 65.0811 24.612 65.5611 24.612ZM70.7517 25.362C70.2926 25.362 69.889 25.2543 69.5414 25.0391C69.1938 24.8238 68.9222 24.5114 68.7279 24.1018C68.5329 23.6921 68.4357 23.2061 68.4357 22.6437C68.4357 22.0813 68.5329 21.5988 68.7279 21.196C68.9222 20.7864 69.1938 20.474 69.5414 20.2587C69.889 20.0435 70.2926 19.9359 70.7517 19.9359C71.2177 19.9359 71.6214 20.0539 71.9621 20.29C72.3097 20.5191 72.5396 20.835 72.6511 21.2377H72.5259L72.6402 20.0296H73.5584C73.5379 20.2379 73.5166 20.4462 73.4961 20.6545C73.4817 20.8628 73.4749 21.0677 73.4749 21.269V25.2682H72.5259V24.0705H72.6402C72.5293 24.4662 72.2994 24.7822 71.9519 25.0182C71.6111 25.2474 71.2108 25.362 70.7517 25.362ZM70.9707 24.612C71.4442 24.612 71.8232 24.4454 72.1085 24.1121C72.3932 23.7789 72.5362 23.2894 72.5362 22.6437C72.5362 21.998 72.3932 21.512 72.1085 21.1857C71.8232 20.8594 71.4442 20.6961 70.9707 20.6961C70.4979 20.6961 70.1154 20.8594 69.8233 21.1857C69.538 21.512 69.3956 21.998 69.3956 22.6437C69.3956 23.2894 69.538 23.7789 69.8233 24.1121C70.1086 24.4454 70.4911 24.612 70.9707 24.612ZM74.4294 25.2682V21.3106C74.4294 21.1023 74.4225 20.8906 74.4089 20.6753C74.402 20.4532 74.3842 20.2379 74.3562 20.0296H75.2744L75.3893 21.3418L75.2326 21.3523C75.3024 21.0329 75.4208 20.7691 75.5877 20.5608C75.7615 20.3455 75.9668 20.1893 76.2035 20.0921C76.4471 19.9879 76.6975 19.9359 76.9548 19.9359C77.0656 19.9359 77.1601 19.9394 77.236 19.9463C77.3126 19.9533 77.3893 19.9706 77.4659 19.9984L77.4447 20.8419C77.3407 20.8003 77.2435 20.776 77.1525 20.7691C77.0691 20.7552 76.9651 20.7482 76.8399 20.7482C76.534 20.7482 76.2692 20.8177 76.0468 20.9565C75.8313 21.0954 75.6644 21.2794 75.546 21.5085C75.4345 21.7376 75.3791 21.9841 75.3791 22.248V25.2682H74.4294ZM79.628 25.362C79.1689 25.362 78.7659 25.2543 78.4176 25.0391C78.0701 24.8238 77.7984 24.5114 77.6041 24.1018C77.4091 23.6921 77.312 23.2061 77.312 22.6437C77.312 22.0813 77.4091 21.5988 77.6041 21.196C77.7984 20.7864 78.0701 20.474 78.4176 20.2587C78.7659 20.0435 79.1689 19.9359 79.628 19.9359C80.094 19.9359 80.4976 20.0539 80.8384 20.29C81.1866 20.5191 81.4159 20.835 81.5274 21.2377H81.4022L81.5171 20.0296H82.4353C82.4141 20.2379 82.3936 20.4462 82.3724 20.6545C82.3587 20.8628 82.3519 21.0677 82.3519 21.269V25.2682H81.4022V24.0705H81.5171C81.4056 24.4662 81.1757 24.7822 80.8281 25.0182C80.4874 25.2474 80.0871 25.362 79.628 25.362ZM79.8476 24.612C80.3204 24.612 80.6995 24.4454 80.9848 24.1121C81.2701 23.7789 81.4124 23.2894 81.4124 22.6437C81.4124 21.998 81.2701 21.512 80.9848 21.1857C80.6995 20.8594 80.3204 20.6961 79.8476 20.6961C79.3742 20.6961 78.9917 20.8594 78.6995 21.1857C78.4142 21.512 78.2719 21.998 78.2719 22.6437C78.2719 23.2894 78.4142 23.7789 78.6995 24.1121C78.9849 24.4454 79.3673 24.612 79.8476 24.612ZM85.4417 25.2682V21.269C85.4417 21.0677 85.4349 20.8628 85.4205 20.6545C85.4069 20.4462 85.3856 20.2379 85.3583 20.0296H86.2765L86.3805 21.1544H86.2553C86.3949 20.7656 86.6172 20.467 86.9231 20.2587C87.2296 20.0435 87.5943 19.9359 88.0185 19.9359C88.4502 19.9359 88.8046 20.0401 89.0831 20.2483C89.3616 20.4497 89.5491 20.7691 89.6462 21.2065H89.4902C89.6223 20.8177 89.8549 20.5087 90.1888 20.2796C90.5227 20.0504 90.9127 19.9359 91.3574 19.9359C91.9349 19.9359 92.3701 20.106 92.6622 20.4462C92.9544 20.7795 93.1001 21.3002 93.1001 22.0084V25.2682H92.1504V22.0605C92.1504 21.5814 92.067 21.2377 91.9 21.0294C91.7331 20.8142 91.469 20.7066 91.107 20.7066C90.6828 20.7066 90.3489 20.8524 90.1053 21.144C89.8624 21.4286 89.7406 21.8175 89.7406 22.3104V25.2682H88.791V22.0605C88.791 21.5814 88.7075 21.2377 88.5405 21.0294C88.3804 20.8142 88.1163 20.7066 87.7475 20.7066C87.3233 20.7066 86.9894 20.8524 86.7458 21.144C86.5091 21.4286 86.3907 21.8175 86.3907 22.3104V25.2682H85.4417ZM96.4165 25.362C95.5817 25.362 94.9208 25.1224 94.4336 24.6433C93.954 24.1642 93.7139 23.5047 93.7139 22.6645C93.7139 22.1091 93.8185 21.63 94.0272 21.2273C94.2427 20.8177 94.5383 20.5018 94.914 20.2796C95.2896 20.0504 95.7275 19.9359 96.2283 19.9359C96.7086 19.9359 97.1157 20.0401 97.4496 20.2483C97.7835 20.4497 98.0374 20.7378 98.2112 21.1127C98.385 21.4877 98.4719 21.932 98.4719 22.4458V22.7582H94.4548V22.1958H97.8253L97.6474 22.3313C97.6474 21.7897 97.5256 21.3696 97.2827 21.0711C97.046 20.7726 96.695 20.6233 96.2283 20.6233C95.7206 20.6233 95.3279 20.8003 95.0494 21.1544C94.771 21.5016 94.6321 21.9772 94.6321 22.5812V22.6749C94.6321 23.3137 94.7887 23.7963 95.1014 24.1226C95.4216 24.4489 95.8636 24.612 96.4267 24.612C96.7401 24.612 97.0323 24.567 97.3032 24.4767C97.5749 24.3864 97.8355 24.2371 98.086 24.0288L98.3986 24.685C98.1626 24.9002 97.867 25.0669 97.5119 25.1849C97.1643 25.3029 96.799 25.362 96.4165 25.362ZM99.087 25.2682V17.603H100.036V25.2682H99.087ZM100.998 25.2682V17.603H101.948V21.1648H101.811C101.965 20.7621 102.212 20.4566 102.552 20.2483C102.893 20.0401 103.287 19.9359 103.731 19.9359C104.365 19.9359 104.831 20.106 105.13 20.4462C105.436 20.7864 105.589 21.3002 105.589 21.9876V25.2682H104.639V22.0397C104.639 21.5745 104.549 21.2377 104.368 21.0294C104.187 20.8142 103.891 20.7066 103.481 20.7066C103.022 20.7066 102.65 20.8489 102.365 21.1336C102.087 21.4183 101.948 21.7967 101.948 22.2688V25.2682H100.998ZM108.728 25.362C108.214 25.362 107.768 25.2543 107.393 25.0391C107.017 24.8169 106.725 24.5045 106.516 24.1018C106.307 23.6921 106.203 23.2061 106.203 22.6437C106.203 22.0883 106.307 21.6092 106.516 21.2065C106.725 20.7969 107.017 20.4844 107.393 20.2692C107.768 20.047 108.214 19.9359 108.728 19.9359C109.243 19.9359 109.688 20.047 110.064 20.2692C110.446 20.4844 110.738 20.7969 110.94 21.2065C111.149 21.6092 111.254 22.0883 111.254 22.6437C111.254 23.2061 111.149 23.6921 110.94 24.1018C110.738 24.5045 110.446 24.8169 110.064 25.0391C109.688 25.2543 109.243 25.362 108.728 25.362ZM108.728 24.612C109.201 24.612 109.581 24.4454 109.865 24.1121C110.151 23.7789 110.294 23.2894 110.294 22.6437C110.294 21.998 110.151 21.512 109.865 21.1857C109.581 20.8594 109.201 20.6961 108.728 20.6961C108.249 20.6961 107.865 20.8594 107.581 21.1857C107.302 21.512 107.163 21.998 107.163 22.6437C107.163 23.2894 107.302 23.7789 107.581 24.1121C107.865 24.4454 108.249 24.612 108.728 24.612ZM111.891 25.2682V21.3106C111.891 21.1023 111.884 20.8906 111.871 20.6753C111.864 20.4532 111.846 20.2379 111.819 20.0296H112.737L112.851 21.3418L112.695 21.3523C112.764 21.0329 112.883 20.7691 113.05 20.5608C113.223 20.3455 113.429 20.1893 113.665 20.0921C113.909 19.9879 114.159 19.9359 114.417 19.9359C114.528 19.9359 114.622 19.9394 114.699 19.9463C114.775 19.9533 114.851 19.9706 114.928 19.9984L114.907 20.8419C114.803 20.8003 114.705 20.776 114.615 20.7691C114.532 20.7552 114.427 20.7482 114.302 20.7482C113.996 20.7482 113.732 20.8177 113.509 20.9565C113.293 21.0954 113.126 21.2794 113.008 21.5085C112.897 21.7376 112.841 21.9841 112.841 22.248V25.2682H111.891ZM114.757 25.2682V24.1121H115.915V25.2682H114.757Z" fill="white"/>
</svg>
