<svg width="168" height="40" viewBox="0 0 168 40" fill="none" xmlns="http://www.w3.org/2000/svg">
<mask id="mask0_884_740" style="mask-type:luminance" maskUnits="userSpaceOnUse" x="0" y="0" width="40" height="40">
<path d="M33.4035 0H5.89474C2.63916 0 0 2.62077 0 5.85366V33.1707C0 36.4036 2.63916 39.0244 5.89474 39.0244H33.4035C36.6591 39.0244 39.2982 36.4036 39.2982 33.1707V5.85366C39.2982 2.62077 36.6591 0 33.4035 0Z" fill="white"/>
</mask>
<g mask="url(#mask0_884_740)">
<path fill-rule="evenodd" clip-rule="evenodd" d="M0 0H39.289V24.6042L19.3272 4.86407L0 23.9055V0ZM39.289 31.6867V38.6214L19.3272 18.8813L0 37.9226V30.8774L19.2906 11.6549L39.289 31.6867ZM32.597 39.0007H5.91481L19.2906 25.6721L32.597 39.0007Z" fill="white"/>
</g>
<path d="M52.6201 19.5122V3.00488H56.9822V10.0761H57.0294L63.3957 3.00488H68.4887L60.4247 11.6917V9.98244L68.9367 19.5122H63.6786L57.0294 12.0663H56.9822V19.5122H52.6201ZM66.7376 11.2468C66.7376 9.52975 67.0756 8.03902 67.7515 6.77463C68.4274 5.49463 69.3942 4.50341 70.6517 3.80097C71.9093 3.09853 73.3947 2.74731 75.1081 2.74731C76.8373 2.74731 78.3306 3.09853 79.5881 3.80097C80.8457 4.50341 81.8124 5.49463 82.4884 6.77463C83.18 8.03902 83.5258 9.52975 83.5258 11.2468C83.5258 12.9483 83.18 14.439 82.4884 15.719C81.8124 16.999 80.8457 17.998 79.5881 18.7161C78.3306 19.4185 76.8373 19.7698 75.1081 19.7698C73.3947 19.7698 71.9093 19.4185 70.6517 18.7161C69.4099 17.998 68.4432 16.999 67.7515 15.719C67.0756 14.439 66.7376 12.9483 66.7376 11.2468ZM71.2884 11.2468C71.2884 12.7922 71.6027 14.0019 72.2315 14.8761C72.8603 15.7346 73.8192 16.1639 75.1081 16.1639C76.3971 16.1639 77.3639 15.7346 78.0084 14.8761C78.6528 14.0019 78.9751 12.7922 78.9751 11.2468C78.9751 9.70146 78.6528 8.49951 78.0084 7.64097C77.3639 6.78244 76.3971 6.35317 75.1081 6.35317C73.8192 6.35317 72.8603 6.78244 72.2315 7.64097C71.6027 8.4839 71.2884 9.68585 71.2884 11.2468ZM84.7216 19.5122V3.00488H87.9283L96.346 13.3776H95.6622V3.00488H99.6945V19.5122H96.4875L88.1169 9.13951H88.8007V19.5122H84.7216ZM101.336 19.5122V3.00488H108.033C109.998 3.00488 111.656 3.34049 113.008 4.0117C114.36 4.66731 115.381 5.6117 116.073 6.84488C116.78 8.06244 117.134 9.52975 117.134 11.2468C117.134 12.9483 116.78 14.4156 116.073 15.6488C115.381 16.882 114.36 17.8341 113.008 18.5054C111.656 19.1766 109.998 19.5122 108.033 19.5122H101.336ZM105.698 16H107.75C109.463 16 110.728 15.6098 111.546 14.8293C112.379 14.0488 112.796 12.8546 112.796 11.2468C112.796 9.62341 112.379 8.42927 111.546 7.66439C110.728 6.8839 109.463 6.49366 107.75 6.49366H105.698V16ZM117.895 11.2468C117.895 9.52975 118.232 8.03902 118.908 6.77463C119.584 5.49463 120.551 4.50341 121.809 3.80097C123.066 3.09853 124.552 2.74731 126.265 2.74731C127.994 2.74731 129.487 3.09853 130.745 3.80097C132.003 4.50341 132.969 5.49463 133.645 6.77463C134.337 8.03902 134.683 9.52975 134.683 11.2468C134.683 12.9483 134.337 14.439 133.645 15.719C132.969 16.999 132.003 17.998 130.745 18.7161C129.487 19.4185 127.994 19.7698 126.265 19.7698C124.552 19.7698 123.066 19.4185 121.809 18.7161C120.567 17.998 119.6 16.999 118.908 15.719C118.232 14.439 117.895 12.9483 117.895 11.2468ZM122.445 11.2468C122.445 12.7922 122.76 14.0019 123.388 14.8761C124.017 15.7346 124.976 16.1639 126.265 16.1639C127.554 16.1639 128.521 15.7346 129.165 14.8761C129.81 14.0019 130.132 12.7922 130.132 11.2468C130.132 9.70146 129.81 8.49951 129.165 7.64097C128.521 6.78244 127.554 6.35317 126.265 6.35317C124.976 6.35317 124.017 6.78244 123.388 7.64097C122.76 8.4839 122.445 9.68585 122.445 11.2468ZM135.878 19.5122V3.00488H143.73C145.648 3.00488 147.126 3.45756 148.163 4.36292C149.216 5.26829 149.743 6.52488 149.743 8.13268C149.743 9.20975 149.507 10.1307 149.035 10.8956C148.564 11.6449 147.88 12.2302 146.984 12.6517C146.088 13.0576 145.019 13.2605 143.777 13.2605L143.99 12.6751H145.168C145.86 12.6751 146.473 12.8624 147.008 13.2371C147.542 13.6117 147.982 14.1346 148.328 14.8059L150.851 19.5122H146.088L143.376 14.2439C143.204 13.9005 142.944 13.6663 142.598 13.5415C142.268 13.4166 141.891 13.3541 141.467 13.3541H140.24V19.5122H135.878ZM140.24 10.2868H142.976C143.824 10.2868 144.469 10.1229 144.909 9.79512C145.349 9.4517 145.569 8.94439 145.569 8.27317C145.569 7.61756 145.349 7.12585 144.909 6.79805C144.469 6.47024 143.824 6.30634 142.976 6.30634H140.24V10.2868ZM158.654 19.7698C156.17 19.7698 154.307 19.161 153.065 17.9434C151.824 16.7259 151.203 14.9073 151.203 12.4878V3.00488H155.541V12.5112C155.541 13.7132 155.793 14.6263 156.296 15.2507C156.799 15.8595 157.585 16.1639 158.654 16.1639C159.723 16.1639 160.509 15.8595 161.012 15.2507C161.515 14.6263 161.766 13.7132 161.766 12.5112V3.00488H166.057V12.4878C166.057 14.9073 165.444 16.7259 164.218 17.9434C162.992 19.161 161.137 19.7698 158.654 19.7698Z" fill="white"/>
<path d="M52.376 36.0975V25.6084H53.6045L57.7697 34.922H57.3202L61.4853 25.6084H62.6989V36.0975H61.4254V27.4533H61.8899L57.9794 36.0975H57.0955L53.185 27.4533H53.6495V36.0975H52.376ZM66.9139 36.2314C66.0049 36.2314 65.3207 35.9884 64.8613 35.5023C64.4118 35.0163 64.1871 34.2674 64.1871 33.2557V28.6138H65.5505V33.226C65.5505 33.8806 65.6853 34.3617 65.955 34.6692C66.2247 34.9767 66.6442 35.1303 67.2135 35.1303C67.8328 35.1303 68.3322 34.927 68.7118 34.5204C69.1013 34.1038 69.2961 33.5533 69.2961 32.8689V28.6138H70.6595V36.0975H69.341V34.446H69.5359C69.3261 35.0113 68.9915 35.4528 68.532 35.7701C68.0725 36.0777 67.5331 36.2314 66.9139 36.2314ZM74.9299 36.2314C74.2707 36.2314 73.6914 36.0777 73.192 35.7701C72.6926 35.4626 72.303 35.0163 72.0233 34.4311C71.7437 33.846 71.6038 33.1516 71.6038 32.3482C71.6038 31.5448 71.7437 30.8554 72.0233 30.2801C72.303 29.6949 72.6926 29.2486 73.192 28.9411C73.6914 28.6337 74.2707 28.4799 74.9299 28.4799C75.5892 28.4799 76.1635 28.6435 76.653 28.9708C77.1523 29.2981 77.487 29.7495 77.6567 30.3248H77.4769V25.1472H78.8404V36.0975H77.492V34.3567H77.6567C77.497 34.9419 77.1674 35.4031 76.6679 35.7404C76.1785 36.0677 75.5992 36.2314 74.9299 36.2314ZM75.2446 35.1601C75.9238 35.1601 76.4682 34.922 76.8776 34.446C77.2972 33.9699 77.5069 33.2706 77.5069 32.3482C77.5069 31.4258 77.2972 30.7314 76.8776 30.2653C76.4682 29.7991 75.9238 29.566 75.2446 29.566C74.5653 29.566 74.0161 29.7991 73.5965 30.2653C73.187 30.7314 72.9822 31.4258 72.9822 32.3482C72.9822 33.2706 73.187 33.9699 73.5965 34.446C74.0161 34.922 74.5653 35.1601 75.2446 35.1601ZM83.6568 36.2314C82.4582 36.2314 81.5092 35.8892 80.8101 35.2048C80.1209 34.5204 79.7763 33.5781 79.7763 32.378C79.7763 31.5845 79.9261 30.9001 80.2258 30.3248C80.5354 29.7396 80.96 29.2883 81.4993 28.9708C82.0387 28.6435 82.668 28.4799 83.3871 28.4799C84.0763 28.4799 84.6606 28.6287 85.14 28.9262C85.6194 29.2139 85.984 29.6255 86.2338 30.1611C86.4834 30.6967 86.6083 31.3315 86.6083 32.0655V32.5118H80.8401V31.7084H85.6794L85.4247 31.9019C85.4247 31.1282 85.2499 30.5281 84.9003 30.1016C84.5608 29.6751 84.0563 29.4619 83.3871 29.4619C82.6579 29.4619 82.0936 29.7147 81.694 30.2206C81.2946 30.7166 81.0947 31.396 81.0947 32.2589V32.3928C81.0947 33.3054 81.3195 33.9947 81.769 34.4609C82.2284 34.927 82.8627 35.1601 83.6717 35.1601C84.1212 35.1601 84.5407 35.0957 84.9302 34.9667C85.3198 34.8378 85.6944 34.6245 86.054 34.3269L86.5035 35.2643C86.1638 35.5718 85.7393 35.8099 85.2299 35.9784C84.7305 36.147 84.2061 36.2314 83.6568 36.2314ZM90.5426 39.3111V30.3843C90.5426 30.0967 90.5326 29.804 90.5127 29.5064C90.4926 29.2089 90.4627 28.9113 90.4228 28.6138H91.7412L91.906 30.3396H91.7412C91.891 29.7644 92.2106 29.3131 92.7001 28.9858C93.1895 28.6485 93.7738 28.4799 94.453 28.4799C95.1222 28.4799 95.7065 28.6337 96.206 28.9411C96.7054 29.2486 97.0899 29.6949 97.3596 30.2801C97.6393 30.8554 97.7791 31.5448 97.7791 32.3482C97.7791 33.1516 97.6393 33.846 97.3596 34.4311C97.0899 35.0163 96.7054 35.4626 96.206 35.7701C95.7065 36.0777 95.1222 36.2314 94.453 36.2314C93.7839 36.2314 93.2045 36.0677 92.715 35.7404C92.2356 35.4031 91.911 34.9518 91.7412 34.3864H91.906V39.3111H90.5426ZM94.1384 35.1601C94.8276 35.1601 95.3769 34.922 95.7865 34.446C96.196 33.9699 96.4007 33.2706 96.4007 32.3482C96.4007 31.4258 96.196 30.7314 95.7865 30.2653C95.3769 29.7991 94.8276 29.566 94.1384 29.566C93.4492 29.566 92.8998 29.7991 92.4903 30.2653C92.0908 30.7314 91.8911 31.4258 91.8911 32.3482C91.8911 33.2706 92.0908 33.9699 92.4903 34.446C92.8998 34.922 93.4492 35.1601 94.1384 35.1601ZM101.592 36.2314C100.932 36.2314 100.353 36.0777 99.8537 35.7701C99.3546 35.4626 98.9645 35.0163 98.6855 34.4311C98.4055 33.846 98.266 33.1516 98.266 32.3482C98.266 31.5448 98.4055 30.8554 98.6855 30.2801C98.9645 29.6949 99.3546 29.2486 99.8537 28.9411C100.353 28.6337 100.932 28.4799 101.592 28.4799C102.261 28.4799 102.84 28.6485 103.33 28.9858C103.829 29.3131 104.159 29.7644 104.319 30.3396H104.139L104.303 28.6138H105.622C105.592 28.9113 105.562 29.2089 105.532 29.5064C105.512 29.804 105.502 30.0967 105.502 30.3843V36.0975H104.139V34.3864H104.303C104.144 34.9518 103.814 35.4031 103.315 35.7404C102.826 36.0677 102.251 36.2314 101.592 36.2314ZM101.906 35.1601C102.586 35.1601 103.13 34.922 103.54 34.446C103.949 33.9699 104.154 33.2706 104.154 32.3482C104.154 31.4258 103.949 30.7314 103.54 30.2653C103.13 29.7991 102.586 29.566 101.906 29.566C101.227 29.566 100.678 29.7991 100.258 30.2653C99.8488 30.7314 99.6444 31.4258 99.6444 32.3482C99.6444 33.2706 99.8488 33.9699 100.258 34.446C100.668 34.922 101.217 35.1601 101.906 35.1601ZM106.872 36.0975V30.4438C106.872 30.1462 106.863 29.8437 106.843 29.5362C106.833 29.2188 106.807 28.9113 106.767 28.6138H108.086L108.251 30.4884L108.026 30.5033C108.126 30.047 108.296 29.6701 108.536 29.3726C108.785 29.0651 109.08 28.8419 109.42 28.703C109.77 28.5542 110.129 28.4799 110.499 28.4799C110.658 28.4799 110.793 28.4849 110.902 28.4947C111.012 28.5047 111.122 28.5295 111.232 28.5692L111.202 29.7742C111.053 29.7147 110.913 29.6801 110.783 29.6701C110.663 29.6503 110.513 29.6404 110.334 29.6404C109.894 29.6404 109.514 29.7396 109.195 29.938C108.885 30.1363 108.646 30.3991 108.476 30.7264C108.316 31.0538 108.236 31.4059 108.236 31.7828V36.0975H106.872ZM114.337 36.2314C113.678 36.2314 113.099 36.0777 112.599 35.7701C112.1 35.4626 111.71 35.0163 111.431 34.4311C111.151 33.846 111.011 33.1516 111.011 32.3482C111.011 31.5448 111.151 30.8554 111.431 30.2801C111.71 29.6949 112.1 29.2486 112.599 28.9411C113.099 28.6337 113.678 28.4799 114.337 28.4799C115.006 28.4799 115.586 28.6485 116.075 28.9858C116.575 29.3131 116.904 29.7644 117.064 30.3396H116.885L117.05 28.6138H118.368C118.338 28.9113 118.308 29.2089 118.278 29.5064C118.258 29.804 118.248 30.0967 118.248 30.3843V36.0975H116.885V34.3864H117.05C116.889 34.9518 116.559 35.4031 116.06 35.7404C115.571 36.0677 114.996 36.2314 114.337 36.2314ZM114.652 35.1601C115.331 35.1601 115.876 34.922 116.285 34.446C116.695 33.9699 116.899 33.2706 116.899 32.3482C116.899 31.4258 116.695 30.7314 116.285 30.2653C115.876 29.7991 115.331 29.566 114.652 29.566C113.973 29.566 113.423 29.7991 113.004 30.2653C112.594 30.7314 112.39 31.4258 112.39 32.3482C112.39 33.2706 112.594 33.9699 113.004 34.446C113.414 34.922 113.963 35.1601 114.652 35.1601ZM122.685 36.0975V30.3843C122.685 30.0967 122.675 29.804 122.655 29.5064C122.635 29.2089 122.604 28.9113 122.565 28.6138H123.884L124.033 30.2206H123.853C124.054 29.6652 124.373 29.2386 124.812 28.9411C125.252 28.6337 125.776 28.4799 126.385 28.4799C127.005 28.4799 127.514 28.6287 127.914 28.9262C128.313 29.2139 128.583 29.6701 128.722 30.295H128.498C128.688 29.7396 129.022 29.2981 129.501 28.9708C129.981 28.6435 130.541 28.4799 131.179 28.4799C132.008 28.4799 132.633 28.7229 133.053 29.2089C133.472 29.685 133.682 30.4289 133.682 31.4406V36.0975H132.318V31.515C132.318 30.8306 132.198 30.3396 131.958 30.042C131.719 29.7346 131.339 29.5809 130.82 29.5809C130.211 29.5809 129.731 29.7892 129.381 30.2058C129.033 30.6124 128.858 31.1679 128.858 31.8721V36.0975H127.494V31.515C127.494 30.8306 127.374 30.3396 127.134 30.042C126.905 29.7346 126.525 29.5809 125.996 29.5809C125.387 29.5809 124.907 29.7892 124.558 30.2058C124.218 30.6124 124.048 31.1679 124.048 31.8721V36.0975H122.685ZM138.444 36.2314C137.245 36.2314 136.296 35.8892 135.596 35.2048C134.908 34.5204 134.563 33.5781 134.563 32.378C134.563 31.5845 134.713 30.9001 135.013 30.3248C135.322 29.7396 135.747 29.2883 136.286 28.9708C136.825 28.6435 137.454 28.4799 138.173 28.4799C138.863 28.4799 139.448 28.6287 139.927 28.9262C140.407 29.2139 140.771 29.6255 141.021 30.1611C141.27 30.6967 141.395 31.3315 141.395 32.0655V32.5118H135.627V31.7084H140.466L140.211 31.9019C140.211 31.1282 140.036 30.5281 139.687 30.1016C139.347 29.6751 138.843 29.4619 138.173 29.4619C137.444 29.4619 136.88 29.7147 136.481 30.2206C136.081 30.7166 135.881 31.396 135.881 32.2589V32.3928C135.881 33.3054 136.106 33.9947 136.555 34.4609C137.015 34.927 137.65 35.1601 138.458 35.1601C138.908 35.1601 139.328 35.0957 139.717 34.9667C140.107 34.8378 140.481 34.6245 140.841 34.3269L141.29 35.2643C140.951 35.5718 140.526 35.8099 140.016 35.9784C139.517 36.147 138.993 36.2314 138.444 36.2314ZM142.278 36.0975V25.1472H143.641V36.0975H142.278ZM145.022 36.0975V25.1472H146.386V30.2355H146.19C146.41 29.6602 146.765 29.2238 147.254 28.9262C147.743 28.6287 148.308 28.4799 148.947 28.4799C149.857 28.4799 150.526 28.7229 150.955 29.2089C151.394 29.6949 151.614 30.4289 151.614 31.4108V36.0975H150.251V31.4853C150.251 30.8207 150.121 30.3396 149.862 30.042C149.601 29.7346 149.177 29.5809 148.587 29.5809C147.928 29.5809 147.394 29.7842 146.985 30.1908C146.585 30.5976 146.386 31.1381 146.386 31.8126V36.0975H145.022ZM156.122 36.2314C155.383 36.2314 154.743 36.0777 154.204 35.7701C153.665 35.4528 153.245 35.0064 152.946 34.4311C152.646 33.846 152.497 33.1516 152.497 32.3482C152.497 31.5547 152.646 30.8703 152.946 30.295C153.245 29.7099 153.665 29.2635 154.204 28.956C154.743 28.6386 155.383 28.4799 156.122 28.4799C156.861 28.4799 157.5 28.6386 158.04 28.956C158.589 29.2635 159.008 29.7099 159.298 30.295C159.598 30.8703 159.748 31.5547 159.748 32.3482C159.748 33.1516 159.598 33.846 159.298 34.4311C159.008 35.0064 158.589 35.4528 158.04 35.7701C157.5 36.0777 156.861 36.2314 156.122 36.2314ZM156.122 35.1601C156.801 35.1601 157.346 34.922 157.755 34.446C158.164 33.9699 158.37 33.2706 158.37 32.3482C158.37 31.4258 158.164 30.7314 157.755 30.2653C157.346 29.7991 156.801 29.566 156.122 29.566C155.433 29.566 154.883 29.7991 154.474 30.2653C154.074 30.7314 153.875 31.4258 153.875 32.3482C153.875 33.2706 154.074 33.9699 154.474 34.446C154.883 34.922 155.433 35.1601 156.122 35.1601ZM160.664 36.0975V30.4438C160.664 30.1462 160.654 29.8437 160.634 29.5362C160.624 29.2188 160.599 28.9113 160.56 28.6138H161.878L162.042 30.4884L161.818 30.5033C161.917 30.047 162.087 29.6701 162.327 29.3726C162.577 29.0651 162.871 28.8419 163.211 28.703C163.561 28.5542 163.921 28.4799 164.29 28.4799C164.45 28.4799 164.585 28.4849 164.695 28.4947C164.805 28.5047 164.914 28.5295 165.024 28.5692L164.994 29.7742C164.844 29.7147 164.705 29.6801 164.575 29.6701C164.455 29.6503 164.305 29.6404 164.125 29.6404C163.686 29.6404 163.307 29.7396 162.986 29.938C162.677 30.1363 162.437 30.3991 162.267 30.7264C162.108 31.0538 162.027 31.4059 162.027 31.7828V36.0975H160.664ZM164.779 36.0975V34.446H166.442V36.0975H164.779Z" fill="white"/>
</svg>
