<svg width="164" height="40" viewBox="0 0 164 40" fill="none" xmlns="http://www.w3.org/2000/svg">
<g clip-path="url(#clip0_679_472)">
<mask id="mask0_679_472" style="mask-type:luminance" maskUnits="userSpaceOnUse" x="0" y="0" width="39" height="40">
<path d="M33.0058 0H5.82456C2.60774 0 0 2.62077 0 5.85366V33.1707C0 36.4036 2.60774 39.0244 5.82456 39.0244H33.0058C36.2227 39.0244 38.8304 36.4036 38.8304 33.1707V5.85366C38.8304 2.62077 36.2227 0 33.0058 0Z" fill="white"/>
</mask>
<g mask="url(#mask0_679_472)">
<path fill-rule="evenodd" clip-rule="evenodd" d="M0 0H38.8213V24.6042L19.0971 4.86407L0 23.9055V0ZM38.8213 31.6867V38.6214L19.0971 18.8813L0 37.9226V30.8774L19.061 11.6549L38.8213 31.6867ZM32.209 39.0007H5.84439L19.061 25.6721L32.209 39.0007Z" fill="white"/>
</g>
<path d="M51.9941 19.5122V3.00488H56.3043V10.0761H56.3509L62.6414 3.00488H67.6739L59.7059 11.6917V9.98244L68.1165 19.5122H62.921L56.3509 12.0663H56.3043V19.5122H51.9941ZM65.9436 11.2468C65.9436 9.52975 66.2775 8.03902 66.9454 6.77463C67.6133 5.49463 68.5685 4.50341 69.8111 3.80097C71.0537 3.09853 72.5214 2.74731 74.2145 2.74731C75.923 2.74731 77.3985 3.09853 78.6411 3.80097C79.8837 4.50341 80.8389 5.49463 81.5068 6.77463C82.1902 8.03902 82.5319 9.52975 82.5319 11.2468C82.5319 12.9483 82.1902 14.439 81.5068 15.719C80.8389 16.999 79.8837 17.998 78.6411 18.7161C77.3985 19.4185 75.923 19.7698 74.2145 19.7698C72.5214 19.7698 71.0537 19.4185 69.8111 18.7161C68.584 17.998 67.6288 16.999 66.9454 15.719C66.2775 14.439 65.9436 12.9483 65.9436 11.2468ZM70.4401 11.2468C70.4401 12.7922 70.7508 14.0019 71.3721 14.8761C71.9934 15.7346 72.9408 16.1639 74.2145 16.1639C75.4881 16.1639 76.4433 15.7346 77.0801 14.8761C77.717 14.0019 78.0354 12.7922 78.0354 11.2468C78.0354 9.70146 77.717 8.49951 77.0801 7.64097C76.4433 6.78244 75.4881 6.35317 74.2145 6.35317C72.9408 6.35317 71.9934 6.78244 71.3721 7.64097C70.7508 8.4839 70.4401 9.68585 70.4401 11.2468ZM83.7134 19.5122V3.00488H86.882L95.1995 13.3776H94.5238V3.00488H98.5081V19.5122H95.3393L87.0684 9.13951H87.744V19.5122H83.7134ZM100.13 19.5122V3.00488H106.747C108.688 3.00488 110.327 3.34049 111.663 4.0117C112.999 4.66731 114.008 5.6117 114.692 6.84488C115.391 8.06244 115.74 9.52975 115.74 11.2468C115.74 12.9483 115.391 14.4156 114.692 15.6488C114.008 16.882 112.999 17.8341 111.663 18.5054C110.327 19.1766 108.688 19.5122 106.747 19.5122H100.13ZM104.44 16H106.467C108.16 16 109.411 15.6098 110.218 14.8293C111.042 14.0488 111.453 12.8546 111.453 11.2468C111.453 9.62341 111.042 8.42927 110.218 7.66439C109.411 6.8839 108.16 6.49366 106.467 6.49366H104.44V16ZM116.491 11.2468C116.491 9.52975 116.825 8.03902 117.493 6.77463C118.161 5.49463 119.116 4.50341 120.359 3.80097C121.602 3.09853 123.069 2.74731 124.762 2.74731C126.471 2.74731 127.946 3.09853 129.189 3.80097C130.432 4.50341 131.387 5.49463 132.055 6.77463C132.738 8.03902 133.08 9.52975 133.08 11.2468C133.08 12.9483 132.738 14.439 132.055 15.719C131.387 16.999 130.432 17.998 129.189 18.7161C127.946 19.4185 126.471 19.7698 124.762 19.7698C123.069 19.7698 121.602 19.4185 120.359 18.7161C119.132 17.998 118.177 16.999 117.493 15.719C116.825 14.439 116.491 12.9483 116.491 11.2468ZM120.988 11.2468C120.988 12.7922 121.299 14.0019 121.92 14.8761C122.541 15.7346 123.489 16.1639 124.762 16.1639C126.036 16.1639 126.991 15.7346 127.628 14.8761C128.265 14.0019 128.583 12.7922 128.583 11.2468C128.583 9.70146 128.265 8.49951 127.628 7.64097C126.991 6.78244 126.036 6.35317 124.762 6.35317C123.489 6.35317 122.541 6.78244 121.92 7.64097C121.299 8.4839 120.988 9.68585 120.988 11.2468ZM134.261 19.5122V3.00488H142.02C143.914 3.00488 145.374 3.45756 146.4 4.36292C147.44 5.26829 147.961 6.52488 147.961 8.13268C147.961 9.20975 147.728 10.1307 147.262 10.8956C146.796 11.6449 146.12 12.2302 145.235 12.6517C144.349 13.0576 143.293 13.2605 142.066 13.2605L142.276 12.6751H143.441C144.124 12.6751 144.73 12.8624 145.258 13.2371C145.786 13.6117 146.221 14.1346 146.563 14.8059L149.056 19.5122H144.349L141.67 14.2439C141.499 13.9005 141.243 13.6663 140.901 13.5415C140.575 13.4166 140.202 13.3541 139.783 13.3541H138.571V19.5122H134.261ZM138.571 10.2868H141.274C142.113 10.2868 142.75 10.1229 143.184 9.79512C143.619 9.45171 143.837 8.94439 143.837 8.27317C143.837 7.61756 143.619 7.12585 143.184 6.79805C142.75 6.47024 142.113 6.30634 141.274 6.30634H138.571V10.2868ZM156.765 19.7698C154.311 19.7698 152.471 19.161 151.244 17.9434C150.017 16.7259 149.403 14.9073 149.403 12.4878V3.00488H153.69V12.5112C153.69 13.7132 153.939 14.6263 154.436 15.2507C154.933 15.8595 155.709 16.1639 156.765 16.1639C157.822 16.1639 158.598 15.8595 159.095 15.2507C159.592 14.6263 159.841 13.7132 159.841 12.5112V3.00488H164.081V12.4878C164.081 14.9073 163.475 16.7259 162.264 17.9434C161.052 19.161 159.219 19.7698 156.765 19.7698Z" fill="white"/>
<path d="M51.7529 36.0975V25.6084H52.9669L57.0824 34.922H56.6383L60.7538 25.6084H61.953V36.0975H60.6946V27.4533H61.1536L57.2897 36.0975H56.4163L52.5523 27.4533H53.0113V36.0975H51.7529ZM66.1178 36.2314C65.2196 36.2314 64.5436 35.9884 64.0896 35.5023C63.6455 35.0163 63.4234 34.2674 63.4234 33.2557V28.6138H64.7706V33.226C64.7706 33.8806 64.9038 34.3617 65.1703 34.6692C65.4368 34.9767 65.8513 35.1303 66.4138 35.1303C67.0257 35.1303 67.5192 34.927 67.8942 34.5204C68.2792 34.1038 68.4717 33.5533 68.4717 32.8689V28.6138H69.8188V36.0975H68.516V34.446H68.7085C68.5013 35.0113 68.1706 35.4528 67.7166 35.7701C67.2626 36.0777 66.7296 36.2314 66.1178 36.2314ZM74.0384 36.2314C73.387 36.2314 72.8146 36.0777 72.3211 35.7701C71.8277 35.4626 71.4428 35.0163 71.1664 34.4311C70.8901 33.846 70.7519 33.1516 70.7519 32.3482C70.7519 31.5448 70.8901 30.8554 71.1664 30.2801C71.4428 29.6949 71.8277 29.2486 72.3211 28.9411C72.8146 28.6337 73.387 28.4799 74.0384 28.4799C74.6898 28.4799 75.2573 28.6435 75.7409 28.9708C76.2343 29.2981 76.565 29.7495 76.7327 30.3248H76.5551V25.1472H77.9023V36.0975H76.5699V34.3567H76.7327C76.5749 34.9419 76.2492 35.4031 75.7557 35.7404C75.2721 36.0677 74.6997 36.2314 74.0384 36.2314ZM74.3493 35.1601C75.0204 35.1601 75.5583 34.922 75.9629 34.446C76.3774 33.9699 76.5847 33.2706 76.5847 32.3482C76.5847 31.4258 76.3774 30.7314 75.9629 30.2653C75.5583 29.7991 75.0204 29.566 74.3493 29.566C73.6781 29.566 73.1354 29.7991 72.7209 30.2653C72.3162 30.7314 72.1138 31.4258 72.1138 32.3482C72.1138 33.2706 72.3162 33.9699 72.7209 34.446C73.1354 34.922 73.6781 35.1601 74.3493 35.1601ZM82.6614 36.2314C81.477 36.2314 80.5394 35.8892 79.8486 35.2048C79.1676 34.5204 78.827 33.5781 78.827 32.378C78.827 31.5845 78.9751 30.9001 79.2712 30.3248C79.5772 29.7396 79.9966 29.2883 80.5296 28.9708C81.0625 28.6435 81.6843 28.4799 82.3949 28.4799C83.0759 28.4799 83.6532 28.6287 84.1269 28.9262C84.6006 29.2139 84.9609 29.6255 85.2077 30.1611C85.4543 30.6967 85.5777 31.3315 85.5777 32.0655V32.5118H79.8782V31.7084H84.6599L84.4082 31.9019C84.4082 31.1282 84.2355 30.5281 83.89 30.1016C83.5546 29.6751 83.0561 29.4619 82.3949 29.4619C81.6744 29.4619 81.1168 29.7147 80.722 30.2206C80.3273 30.7166 80.1298 31.396 80.1298 32.2589V32.3928C80.1298 33.3054 80.3519 33.9947 80.796 34.4609C81.25 34.927 81.8767 35.1601 82.6761 35.1601C83.1202 35.1601 83.5347 35.0957 83.9197 34.9667C84.3046 34.8378 84.6747 34.6245 85.03 34.3269L85.4741 35.2643C85.1385 35.5718 84.7191 35.8099 84.2157 35.9784C83.7223 36.147 83.2041 36.2314 82.6614 36.2314ZM89.4652 39.3111V30.3843C89.4652 30.0967 89.4553 29.804 89.4356 29.5064C89.4158 29.2089 89.3862 28.9113 89.3468 28.6138H90.6495L90.8123 30.3396H90.6495C90.7976 29.7644 91.1134 29.3131 91.597 28.9858C92.0805 28.6485 92.658 28.4799 93.329 28.4799C93.9903 28.4799 94.5676 28.6337 95.0612 28.9411C95.5546 29.2486 95.9346 29.6949 96.201 30.2801C96.4774 30.8554 96.6155 31.5448 96.6155 32.3482C96.6155 33.1516 96.4774 33.846 96.201 34.4311C95.9346 35.0163 95.5546 35.4626 95.0612 35.7701C94.5676 36.0777 93.9903 36.2314 93.329 36.2314C92.6679 36.2314 92.0954 36.0677 91.6118 35.7404C91.138 35.4031 90.8173 34.9518 90.6495 34.3864H90.8123V39.3111H89.4652ZM93.0182 35.1601C93.6992 35.1601 94.2419 34.922 94.6466 34.446C95.0513 33.9699 95.2536 33.2706 95.2536 32.3482C95.2536 31.4258 95.0513 30.7314 94.6466 30.2653C94.2419 29.7991 93.6992 29.566 93.0182 29.566C92.3372 29.566 91.7944 29.7991 91.3897 30.2653C90.9949 30.7314 90.7976 31.4258 90.7976 32.3482C90.7976 33.2706 90.9949 33.9699 91.3897 34.446C91.7944 34.922 92.3372 35.1601 93.0182 35.1601ZM100.383 36.2314C99.7313 36.2314 99.1586 36.0777 98.6654 35.7701C98.1723 35.4626 97.7869 35.0163 97.5112 34.4311C97.2345 33.846 97.0967 33.1516 97.0967 32.3482C97.0967 31.5448 97.2345 30.8554 97.5112 30.2801C97.7869 29.6949 98.1723 29.2486 98.6654 28.9411C99.1586 28.6337 99.7313 28.4799 100.383 28.4799C101.044 28.4799 101.617 28.6485 102.1 28.9858C102.593 29.3131 102.919 29.7644 103.078 30.3396H102.9L103.062 28.6138H104.365C104.336 28.9113 104.306 29.2089 104.276 29.5064C104.256 29.804 104.246 30.0967 104.246 30.3843V36.0975H102.9V34.3864H103.062C102.905 34.9518 102.579 35.4031 102.085 35.7404C101.602 36.0677 101.034 36.2314 100.383 36.2314ZM100.693 35.1601C101.365 35.1601 101.903 34.922 102.308 34.446C102.712 33.9699 102.914 33.2706 102.914 32.3482C102.914 31.4258 102.712 30.7314 102.308 30.2653C101.903 29.7991 101.365 29.566 100.693 29.566C100.023 29.566 99.4799 29.7991 99.0654 30.2653C98.6606 30.7314 98.4586 31.4258 98.4586 32.3482C98.4586 33.2706 98.6606 33.9699 99.0654 34.446C99.4702 34.922 100.013 35.1601 100.693 35.1601ZM105.601 36.0975V30.4438C105.601 30.1462 105.591 29.8437 105.571 29.5362C105.562 29.2188 105.536 28.9113 105.497 28.6138H106.799L106.962 30.4884L106.74 30.5033C106.839 30.047 107.007 29.6701 107.244 29.3726C107.491 29.0651 107.782 28.8419 108.118 28.703C108.463 28.5542 108.819 28.4799 109.184 28.4799C109.341 28.4799 109.475 28.4849 109.583 28.4947C109.691 28.5047 109.8 28.5295 109.909 28.5692L109.879 29.7742C109.731 29.7147 109.593 29.6801 109.464 29.6701C109.346 29.6503 109.198 29.6404 109.021 29.6404C108.587 29.6404 108.211 29.7396 107.895 29.938C107.59 30.1363 107.353 30.3991 107.185 30.7264C107.027 31.0538 106.948 31.4059 106.948 31.7828V36.0975H105.601ZM112.976 36.2314C112.325 36.2314 111.753 36.0777 111.259 35.7701C110.766 35.4626 110.381 35.0163 110.105 34.4311C109.828 33.846 109.69 33.1516 109.69 32.3482C109.69 31.5448 109.828 30.8554 110.105 30.2801C110.381 29.6949 110.766 29.2486 111.259 28.9411C111.753 28.6337 112.325 28.4799 112.976 28.4799C113.637 28.4799 114.21 28.6485 114.694 28.9858C115.188 29.3131 115.513 29.7644 115.671 30.3396H115.494L115.657 28.6138H116.959C116.929 28.9113 116.9 29.2089 116.87 29.5064C116.851 29.804 116.841 30.0967 116.841 30.3843V36.0975H115.494V34.3864H115.657C115.498 34.9518 115.172 35.4031 114.679 35.7404C114.196 36.0677 113.628 36.2314 112.976 36.2314ZM113.288 35.1601C113.959 35.1601 114.497 34.922 114.901 34.446C115.306 33.9699 115.508 33.2706 115.508 32.3482C115.508 31.4258 115.306 30.7314 114.901 30.2653C114.497 29.7991 113.959 29.566 113.288 29.566C112.616 29.566 112.074 29.7991 111.659 30.2653C111.254 30.7314 111.052 31.4258 111.052 32.3482C111.052 33.2706 111.254 33.9699 111.659 34.446C112.064 34.922 112.606 35.1601 113.288 35.1601ZM121.225 36.0975V30.3843C121.225 30.0967 121.215 29.804 121.195 29.5064C121.175 29.2089 121.145 28.9113 121.106 28.6138H122.409L122.557 30.2206H122.379C122.577 29.6652 122.893 29.2386 123.327 28.9411C123.761 28.6337 124.279 28.4799 124.881 28.4799C125.493 28.4799 125.996 28.6287 126.391 28.9262C126.786 29.2139 127.052 29.6701 127.19 30.295H126.969C127.156 29.7396 127.486 29.2981 127.96 28.9708C128.434 28.6435 128.987 28.4799 129.618 28.4799C130.437 28.4799 131.055 28.7229 131.469 29.2089C131.884 29.685 132.091 30.4289 132.091 31.4406V36.0975H130.743V31.515C130.743 30.8306 130.625 30.3396 130.388 30.042C130.151 29.7346 129.776 29.5809 129.263 29.5809C128.661 29.5809 128.187 29.7892 127.842 30.2058C127.497 30.6124 127.324 31.1679 127.324 31.8721V36.0975H125.977V31.515C125.977 30.8306 125.858 30.3396 125.621 30.042C125.394 29.7346 125.02 29.5809 124.496 29.5809C123.894 29.5809 123.421 29.7892 123.075 30.2058C122.739 30.6124 122.571 31.1679 122.571 31.8721V36.0975H121.225ZM136.796 36.2314C135.612 36.2314 134.674 35.8892 133.983 35.2048C133.302 34.5204 132.961 33.5781 132.961 32.378C132.961 31.5845 133.11 30.9001 133.406 30.3248C133.712 29.7396 134.131 29.2883 134.664 28.9708C135.197 28.6435 135.818 28.4799 136.529 28.4799C137.21 28.4799 137.788 28.6287 138.262 28.9262C138.735 29.2139 139.096 29.6255 139.342 30.1611C139.589 30.6967 139.712 31.3315 139.712 32.0655V32.5118H134.013V31.7084H138.795L138.542 31.9019C138.542 31.1282 138.369 30.5281 138.025 30.1016C137.689 29.6751 137.191 29.4619 136.529 29.4619C135.809 29.4619 135.251 29.7147 134.856 30.2206C134.461 30.7166 134.264 31.396 134.264 32.2589V32.3928C134.264 33.3054 134.486 33.9947 134.93 34.4609C135.384 34.927 136.012 35.1601 136.81 35.1601C137.255 35.1601 137.67 35.0957 138.054 34.9667C138.439 34.8378 138.809 34.6245 139.165 34.3269L139.608 35.2643C139.273 35.5718 138.854 35.8099 138.35 35.9784C137.857 36.147 137.339 36.2314 136.796 36.2314ZM140.585 36.0975V25.1472H141.931V36.0975H140.585ZM143.296 36.0975V25.1472H144.644V30.2355H144.45C144.668 29.6602 145.018 29.2238 145.502 28.9262C145.985 28.6287 146.543 28.4799 147.174 28.4799C148.073 28.4799 148.734 28.7229 149.159 29.2089C149.592 29.6949 149.81 30.4289 149.81 31.4108V36.0975H148.462V31.4853C148.462 30.8207 148.334 30.3396 148.078 30.042C147.821 29.7346 147.401 29.5809 146.819 29.5809C146.168 29.5809 145.64 29.7842 145.236 30.1908C144.841 30.5976 144.644 31.1381 144.644 31.8126V36.0975H143.296ZM154.264 36.2314C153.534 36.2314 152.902 36.0777 152.369 35.7701C151.836 35.4528 151.421 35.0064 151.125 34.4311C150.829 33.846 150.682 33.1516 150.682 32.3482C150.682 31.5547 150.829 30.8703 151.125 30.295C151.421 29.7099 151.836 29.2635 152.369 28.956C152.902 28.6386 153.534 28.4799 154.264 28.4799C154.994 28.4799 155.626 28.6386 156.159 28.956C156.701 29.2635 157.116 29.7099 157.402 30.295C157.698 30.8703 157.847 31.5547 157.847 32.3482C157.847 33.1516 157.698 33.846 157.402 34.4311C157.116 35.0064 156.701 35.4528 156.159 35.7701C155.626 36.0777 154.994 36.2314 154.264 36.2314ZM154.264 35.1601C154.935 35.1601 155.473 34.922 155.877 34.446C156.282 33.9699 156.485 33.2706 156.485 32.3482C156.485 31.4258 156.282 30.7314 155.877 30.2653C155.473 29.7991 154.935 29.566 154.264 29.566C153.583 29.566 153.04 29.7991 152.636 30.2653C152.241 30.7314 152.044 31.4258 152.044 32.3482C152.044 33.2706 152.241 33.9699 152.636 34.446C153.04 34.922 153.583 35.1601 154.264 35.1601ZM158.752 36.0975V30.4438C158.752 30.1462 158.742 29.8437 158.722 29.5362C158.713 29.2188 158.688 28.9113 158.649 28.6138H159.951L160.114 30.4884L159.892 30.5033C159.99 30.047 160.158 29.6701 160.395 29.3726C160.642 29.0651 160.933 28.8419 161.269 28.703C161.614 28.5542 161.97 28.4799 162.335 28.4799C162.493 28.4799 162.626 28.4849 162.735 28.4947C162.843 28.5047 162.951 28.5295 163.06 28.5692L163.031 29.7742C162.882 29.7147 162.744 29.6801 162.616 29.6701C162.498 29.6503 162.349 29.6404 162.172 29.6404C161.738 29.6404 161.363 29.7396 161.046 29.938C160.741 30.1363 160.504 30.3991 160.336 30.7264C160.179 31.0538 160.099 31.4059 160.099 31.7828V36.0975H158.752ZM162.818 36.0975V34.446H164.461V36.0975H162.818Z" fill="white"/>
</g>
<defs>
<clipPath id="clip0_679_472">
<rect width="164" height="40" fill="white"/>
</clipPath>
</defs>
</svg>
