<svg width="22" height="21" viewBox="0 0 22 21" fill="none" xmlns="http://www.w3.org/2000/svg">
<path d="M2.98008 6.723C2.04454 7.82718 1.3479 9.1132 0.934082 10.5C2.22608 14.838 6.24408 18 11.0001 18C11.9931 18 12.9531 17.862 13.8631 17.605M5.22808 4.728C6.94073 3.59786 8.94817 2.99688 11.0001 3C15.7561 3 19.7731 6.162 21.0651 10.498C20.357 12.8673 18.8371 14.9116 16.7721 16.272M5.22808 4.728L2.00008 1.5M5.22808 4.728L8.87808 8.378M16.7721 16.272L20.0001 19.5M16.7721 16.272L13.1221 12.622C13.4007 12.3434 13.6217 12.0127 13.7725 11.6486C13.9232 11.2846 14.0008 10.8945 14.0008 10.5005C14.0008 10.1065 13.9232 9.71636 13.7725 9.35235C13.6217 8.98834 13.4007 8.6576 13.1221 8.379C12.8435 8.1004 12.5127 7.8794 12.1487 7.72863C11.7847 7.57785 11.3946 7.50025 11.0006 7.50025C10.6066 7.50025 10.2164 7.57785 9.85243 7.72863C9.48843 7.8794 9.15768 8.1004 8.87908 8.379M13.1211 12.621L8.88008 8.38" stroke="white" stroke-width="1.5" stroke-linecap="round" stroke-linejoin="round"/>
</svg>
