<svg width="24" height="18" viewBox="0 0 24 18" fill="none" xmlns="http://www.w3.org/2000/svg">
<g clip-path="url(#clip0_543_11)">
<path d="M3.25055 5.60072C2.22996 6.59448 1.46999 7.75191 1.01855 9.00002C2.42801 12.9042 6.81128 15.75 11.9996 15.75C13.0829 15.75 14.1302 15.6258 15.1229 15.3945M5.70292 3.80522C7.57126 2.7881 9.76119 2.24722 11.9996 2.25002C17.188 2.25002 21.5702 5.09582 22.9796 8.99822C22.2072 11.1306 20.5491 12.9705 18.2964 14.1948M5.70292 3.80522L2.18146 0.900024M5.70292 3.80522L9.68474 7.09022M18.2964 14.1948L21.8178 17.1M18.2964 14.1948L14.3146 10.9098C14.6185 10.6591 14.8596 10.3614 15.0241 10.0338C15.1885 9.7062 15.2732 9.35507 15.2732 9.00047C15.2732 8.64588 15.1885 8.29475 15.0241 7.96714C14.8596 7.63953 14.6185 7.34186 14.3146 7.09112C14.0106 6.84038 13.6498 6.64149 13.2527 6.50579C12.8556 6.37009 12.43 6.30025 12.0002 6.30025C11.5704 6.30025 11.1448 6.37009 10.7477 6.50579C10.3506 6.64149 9.98975 6.84038 9.68583 7.09112M14.3135 10.9089L9.68692 7.09202" stroke="#808990" stroke-width="1.5" stroke-linecap="round" stroke-linejoin="round"/>
</g>
<defs>
<clipPath id="clip0_543_11">
<rect width="24" height="18" fill="white"/>
</clipPath>
</defs>
</svg>
