<svg width="19" height="16" viewBox="0 0 19 16" fill="none" xmlns="http://www.w3.org/2000/svg">
<path fill-rule="evenodd" clip-rule="evenodd" d="M2.83506 0.201292C2.69288 0.0688118 2.50484 -0.00331137 2.31054 0.000116847C2.11623 0.00354506 1.93085 0.0822571 1.79344 0.21967C1.65602 0.357083 1.57731 0.542468 1.57388 0.736769C1.57046 0.93107 1.64258 1.11912 1.77506 1.26129L16.2751 15.7613C16.3437 15.835 16.4265 15.8941 16.5185 15.9351C16.6105 15.9761 16.7098 15.9981 16.8105 15.9999C16.9112 16.0017 17.0113 15.9831 17.1047 15.9454C17.198 15.9077 17.2829 15.8515 17.3541 15.7803C17.4253 15.7091 17.4815 15.6243 17.5192 15.5309C17.5569 15.4375 17.5754 15.3375 17.5736 15.2368C17.5719 15.1361 17.5498 15.0368 17.5088 14.9448C17.4678 14.8528 17.4087 14.77 17.3351 14.7013L15.5901 12.9563C17.0756 11.8312 18.2183 10.3145 18.8901 8.57629C19.0367 8.1949 19.0367 7.77268 18.8901 7.39129C18.1638 5.50466 16.883 3.88233 15.2164 2.73807C13.5498 1.59381 11.5757 0.981317 9.55406 0.981292C7.89803 0.978552 6.26748 1.38894 4.81006 2.17529L2.83506 0.201292ZM7.30706 4.67129L8.39906 5.76329C8.87082 5.51671 9.40898 5.42715 9.93518 5.50766C10.4614 5.58816 10.9481 5.83452 11.3246 6.21087C11.7011 6.58722 11.9476 7.07392 12.0282 7.60009C12.1089 8.12627 12.0195 8.66445 11.7731 9.13629L12.8641 10.2283C13.3876 9.45842 13.6262 8.53002 13.5388 7.6031C13.4513 6.67618 13.0432 5.8088 12.3849 5.15046C11.7266 4.49211 10.8592 4.08404 9.93225 3.99657C9.00533 3.90911 8.07693 4.14772 7.30706 4.67129Z" fill="white"/>
<path d="M10.3031 11.9113L12.8261 14.4343C11.7741 14.7975 10.6689 14.9824 9.55606 14.9813C5.29806 14.9813 1.66206 12.3213 0.219058 8.57129C0.0721628 8.1896 0.0721628 7.76698 0.219058 7.38529C0.707526 6.1217 1.44747 4.97044 2.39406 4.00129L5.62506 7.23329C5.50296 7.87411 5.53944 8.53506 5.73132 9.15855C5.9232 9.78204 6.26466 10.3491 6.72594 10.8104C7.18722 11.2717 7.75431 11.6131 8.3778 11.805C9.00129 11.9969 9.66224 12.0334 10.3031 11.9113Z" fill="white"/>
</svg>
