<svg width="22" height="22" viewBox="0 0 22 22" fill="none" xmlns="http://www.w3.org/2000/svg">
<path d="M16.6 9.5V5.75C16.6 4.55653 15.9837 3.41193 14.8866 2.56802C13.7895 1.72411 12.3015 1.25 10.75 1.25C9.19848 1.25 7.71051 1.72411 6.61343 2.56802C5.51634 3.41193 4.9 4.55653 4.9 5.75V9.5M3.925 20.75H17.575C18.3508 20.75 19.0947 20.5129 19.6433 20.091C20.1918 19.669 20.5 19.0967 20.5 18.5V11.75C20.5 11.1533 20.1918 10.581 19.6433 10.159C19.0947 9.73705 18.3508 9.5 17.575 9.5H3.925C3.14924 9.5 2.40526 9.73705 1.85671 10.159C1.30817 10.581 1 11.1533 1 11.75V18.5C1 19.0967 1.30817 19.669 1.85671 20.091C2.40526 20.5129 3.14924 20.75 3.925 20.75Z" stroke="#808990" stroke-width="2" stroke-linecap="round" stroke-linejoin="round"/>
</svg>
