<svg width="24" height="24" viewBox="0 0 26 26" fill="none" xmlns="http://www.w3.org/2000/svg">
<path d="M20.2 11.1538V6.53846C20.2 5.06957 19.4414 3.66084 18.0912 2.62218C16.7409 1.58351 14.9096 1 13 1C11.0904 1 9.25909 1.58351 7.90883 2.62218C6.55857 3.66084 5.8 5.06957 5.8 6.53846V11.1538M4.6 25H21.4C22.3548 25 23.2705 24.7082 23.9456 24.1889C24.6207 23.6696 25 22.9652 25 22.2308V13.9231C25 13.1886 24.6207 12.4843 23.9456 11.9649C23.2705 11.4456 22.3548 11.1538 21.4 11.1538H4.6C3.64522 11.1538 2.72955 11.4456 2.05442 11.9649C1.37928 12.4843 1 13.1886 1 13.9231V22.2308C1 22.9652 1.37928 23.6696 2.05442 24.1889C2.72955 24.7082 3.64522 25 4.6 25Z" stroke="#808990" stroke-width="2" stroke-linecap="round" stroke-linejoin="round"/>
</svg>
