<svg width="26" height="26" viewBox="0 0 26 26" fill="none" xmlns="http://www.w3.org/2000/svg">
<path d="M19.0008 5.61538C19.0008 6.83946 18.3686 8.0134 17.2432 8.87895C16.1178 9.74451 14.5915 10.2308 13 10.2308C11.4085 10.2308 9.88216 9.74451 8.75679 8.87895C7.63143 8.0134 6.9992 6.83946 6.9992 5.61538C6.9992 4.39131 7.63143 3.21737 8.75679 2.35181C9.88216 1.48626 11.4085 1 13 1C14.5915 1 16.1178 1.48626 17.2432 2.35181C18.3686 3.21737 19.0008 4.39131 19.0008 5.61538ZM1 22.9914C1.05142 20.5697 2.33832 18.2605 4.58316 16.5619C6.828 14.8633 9.85092 13.9113 13 13.9113C16.1491 13.9113 19.172 14.8633 21.4168 16.5619C23.6617 18.2605 24.9486 20.5697 25 22.9914C21.2353 24.3191 17.1416 25.0043 13 25C8.71783 25 4.65329 24.2812 1 22.9914Z" stroke="#808990" stroke-width="2" stroke-linecap="round" stroke-linejoin="round"/>
</svg>
