<svg width="22" height="22" viewBox="0 0 22 22" fill="none" xmlns="http://www.w3.org/2000/svg">
<path d="M15.6256 5C15.6256 5.99456 15.112 6.94839 14.1976 7.65165C13.2832 8.35491 12.0431 8.75 10.75 8.75C9.4569 8.75 8.21676 8.35491 7.30239 7.65165C6.38803 6.94839 5.87435 5.99456 5.87435 5C5.87435 4.00544 6.38803 3.05161 7.30239 2.34835C8.21676 1.64509 9.4569 1.25 10.75 1.25C12.0431 1.25 13.2832 1.64509 14.1976 2.34835C15.112 3.05161 15.6256 4.00544 15.6256 5ZM1 19.118C1.04178 17.1504 2.08738 15.2742 3.91132 13.894C5.73525 12.5139 8.19137 11.7405 10.75 11.7405C13.3086 11.7405 15.7647 12.5139 17.5887 13.894C19.4126 15.2742 20.4582 17.1504 20.5 19.118C17.4412 20.1968 14.115 20.7535 10.75 20.75C7.27074 20.75 3.9683 20.166 1 19.118Z" stroke="#808990" stroke-width="2" stroke-linecap="round" stroke-linejoin="round"/>
</svg>
