<svg width="24" height="24" viewBox="0 0 24 18" fill="none" xmlns="http://www.w3.org/2000/svg">
<g clip-path="url(#clip0_190_166)">
<path d="M2.03613 9.322C1.96712 9.11459 1.96712 8.89041 2.03613 8.683C3.42313 4.51 7.36013 1.5 12.0001 1.5C16.6381 1.5 20.5731 4.507 21.9631 8.678C22.0331 8.885 22.0331 9.109 21.9631 9.317C20.5771 13.49 16.6401 16.5 12.0001 16.5C7.36213 16.5 3.42613 13.493 2.03613 9.322Z" stroke="#808990" stroke-width="2" stroke-linecap="round" stroke-linejoin="round"/>
<path d="M15 9C15 9.79565 14.6839 10.5587 14.1213 11.1213C13.5587 11.6839 12.7956 12 12 12C11.2044 12 10.4413 11.6839 9.87868 11.1213C9.31607 10.5587 9 9.79565 9 9C9 8.20435 9.31607 7.44129 9.87868 6.87868C10.4413 6.31607 11.2044 6 12 6C12.7956 6 13.5587 6.31607 14.1213 6.87868C14.6839 7.44129 15 8.20435 15 9Z" stroke="#808990" stroke-width="2" stroke-linecap="round" stroke-linejoin="round"/>
</g>
<defs>
<clipPath id="clip0_190_166">
<rect width="24" height="18" fill="white"/>
</clipPath>
</defs>
</svg>
